<svg width="50" height="50" viewBox="0 0 50 50" fill="none" xmlns="http://www.w3.org/2000/svg">
<mask id="path-1-inside-1_527_9609" fill="white">
<path d="M9.68945 11C4.89035 11 1.00013 14.8904 1 19.6895C1 23.0227 2.87697 25.916 5.63156 27.3728C7.05458 28.1254 8.31079 29.2858 8.97403 30.7526C11.4125 36.1453 17.4821 39.9657 24.5859 39.9658C31.5377 39.9658 37.5009 36.3076 40.0388 31.0974C40.8013 29.532 42.2456 28.3389 43.8368 27.6318C46.8787 26.28 49 23.2331 49 19.6895C48.9999 14.8905 45.1095 11.0001 40.3105 11C39.0193 11 37.794 11.2819 36.6925 11.7874C35.017 12.5563 33.0343 12.8668 31.3104 12.2133C29.252 11.4331 26.9775 11 24.5859 11C22.3157 11 20.1508 11.39 18.1763 12.0967C16.5579 12.676 14.7312 12.4044 13.155 11.7184C12.0933 11.2562 10.9213 11 9.68945 11Z"/>
</mask>
<path d="M9.68945 11C4.89035 11 1.00013 14.8904 1 19.6895C1 23.0227 2.87697 25.916 5.63156 27.3728C7.05458 28.1254 8.31079 29.2858 8.97403 30.7526C11.4125 36.1453 17.4821 39.9657 24.5859 39.9658C31.5377 39.9658 37.5009 36.3076 40.0388 31.0974C40.8013 29.532 42.2456 28.3389 43.8368 27.6318C46.8787 26.28 49 23.2331 49 19.6895C48.9999 14.8905 45.1095 11.0001 40.3105 11C39.0193 11 37.794 11.2819 36.6925 11.7874C35.017 12.5563 33.0343 12.8668 31.3104 12.2133C29.252 11.4331 26.9775 11 24.5859 11C22.3157 11 20.1508 11.39 18.1763 12.0967C16.5579 12.676 14.7312 12.4044 13.155 11.7184C12.0933 11.2562 10.9213 11 9.68945 11Z" fill="url(#paint0_linear_527_9609)"/>
<path d="M9.68945 11V10V11ZM1 19.6895H0V19.6894L1 19.6895ZM24.5859 39.9658V40.9658H24.5859L24.5859 39.9658ZM49 19.6895L50 19.6894V19.6895H49ZM40.3105 11V10H40.3106L40.3105 11ZM24.5859 11L24.5859 10H24.5859V11ZM13.155 11.7184L13.5542 10.8015L13.155 11.7184ZM43.8368 27.6318L44.2429 28.5456L43.8368 27.6318ZM36.6925 11.7874L37.1096 12.6962L36.6925 11.7874ZM8.97403 30.7526L8.06286 31.1646L8.97403 30.7526ZM9.68945 11V12C5.44266 12 2.00011 15.4426 2 19.6895L1 19.6895L0 19.6894C0.000144958 14.3381 4.33804 10 9.68945 10V11ZM1 19.6895H2C2 22.6375 3.65891 25.1983 6.09906 26.4888L5.63156 27.3728L5.16405 28.2568C2.09504 26.6337 0 23.4079 0 19.6895H1ZM8.97403 30.7526L9.88521 30.3406C12.1415 35.3305 17.8233 38.9657 24.586 38.9658L24.5859 39.9658L24.5859 40.9658C17.141 40.9657 10.6835 36.9601 8.06286 31.1646L8.97403 30.7526ZM24.5859 39.9658V38.9658C31.2027 38.9658 36.7893 35.4851 39.1398 30.6595L40.0388 31.0974L40.9378 31.5353C38.2126 37.1302 31.8728 40.9658 24.5859 40.9658V39.9658ZM43.8368 27.6318L43.4307 26.7179C46.1248 25.5207 48 22.8236 48 19.6895H49H50C50 23.6426 47.6327 27.0392 44.2429 28.5456L43.8368 27.6318ZM49 19.6895L48 19.6895C47.9999 15.4427 44.5573 12.0001 40.3105 12L40.3105 11L40.3106 10C45.6618 10.0001 49.9999 14.3382 50 19.6894L49 19.6895ZM40.3105 11V12C39.1662 12 38.0829 12.2496 37.1096 12.6962L36.6925 11.7874L36.2755 10.8785C37.505 10.3142 38.8724 10 40.3105 10V11ZM31.3104 12.2133L30.956 13.1484C29.0111 12.4112 26.8566 12 24.5859 12V11V10C27.0983 10 29.493 10.455 31.6648 11.2782L31.3104 12.2133ZM24.5859 11L24.586 12C22.4303 12 20.3794 12.3703 18.5133 13.0382L18.1763 12.0967L17.8393 11.1552C19.9222 10.4097 22.2011 10 24.5859 10L24.5859 11ZM13.155 11.7184L12.7559 12.6353C11.8178 12.2269 10.7814 12 9.68945 12V11V10C11.0612 10 12.3689 10.2856 13.5542 10.8015L13.155 11.7184ZM18.1763 12.0967L18.5133 13.0382C16.5791 13.7306 14.4787 13.3852 12.7559 12.6353L13.155 11.7184L13.5542 10.8015C14.9837 11.4237 16.5366 11.6215 17.8393 11.1552L18.1763 12.0967ZM40.0388 31.0974L39.1398 30.6595C40.0296 28.8326 41.6809 27.4955 43.4307 26.7179L43.8368 27.6318L44.2429 28.5456C42.8103 29.1822 41.5729 30.2314 40.9378 31.5353L40.0388 31.0974ZM36.6925 11.7874L37.1096 12.6962C35.2838 13.5341 33.0119 13.9277 30.956 13.1484L31.3104 12.2133L31.6648 11.2782C33.0566 11.8058 34.7502 11.5784 36.2755 10.8785L36.6925 11.7874ZM5.63156 27.3728L6.09906 26.4888C7.66926 27.3192 9.11006 28.6263 9.88521 30.3406L8.97403 30.7526L8.06286 31.1646C7.51151 29.9453 6.4399 28.9315 5.16405 28.2568L5.63156 27.3728Z" fill="#6588FF" mask="url(#path-1-inside-1_527_9609)"/>
<ellipse cx="3.37933" cy="4.34485" rx="3.37933" ry="4.34485" transform="matrix(-1 0 0 1 27.8965 19.6897)" fill="white"/>
<circle cx="2.4138" cy="2.4138" r="2.4138" transform="matrix(-1 0 0 1 25.9658 21.6206)" fill="black"/>
<ellipse cx="3.37933" cy="4.34485" rx="3.37933" ry="4.34485" transform="matrix(-1 0 0 1 21.1367 19.6897)" fill="white"/>
<circle cx="2.4138" cy="2.4138" r="2.4138" transform="matrix(-1 0 0 1 19.207 21.6206)" fill="black"/>
<defs>
<linearGradient id="paint0_linear_527_9609" x1="25" y1="11" x2="25" y2="39.9658" gradientUnits="userSpaceOnUse">
<stop stop-color="#E0EEFF"/>
<stop offset="1" stop-color="#91C3FF"/>
</linearGradient>
</defs>
</svg>
