<svg width="24" height="24" viewBox="0 0 24 24" fill="none" xmlns="http://www.w3.org/2000/svg">
<path d="M5.02747 3.17397C10.0602 2.94025 13.9179 2.94216 18.9699 3.17886C21.0407 3.27589 22.7237 4.91666 22.8507 7.00796C23.0592 10.4424 23.0471 13.3026 22.8312 16.9699C22.7067 19.0844 21.0111 20.7518 18.9171 20.8419C13.9959 21.0533 10.1469 21.0533 5.04309 20.839C2.92667 20.7499 1.21846 19.0518 1.11927 16.9132C0.957807 13.432 0.961424 10.59 1.12317 7.10366C1.22216 4.97173 2.91799 3.27201 5.02747 3.17397ZM7.8097 12.5294C7.23361 12.5295 6.66618 12.598 6.10755 12.7345C5.54884 12.8715 4.9984 13.0772 4.45716 13.3507C4.20437 13.483 4.00123 13.6741 3.84876 13.925C3.69598 14.1763 3.61944 14.4525 3.61927 14.7521V15.1769C3.61936 15.4676 3.72206 15.7167 3.92688 15.924C4.13184 16.1311 4.37907 16.2355 4.66712 16.2355H10.9523C11.2404 16.2355 11.4872 16.1312 11.6925 15.924C11.8973 15.7166 12 15.4678 12.0001 15.1769V14.7521C12 14.4525 11.9244 14.1763 11.7716 13.925C11.6191 13.6739 11.4152 13.483 11.1622 13.3507C10.621 13.0772 10.0705 12.8714 9.51184 12.7345C8.95325 12.598 8.38574 12.5294 7.8097 12.5294ZM17.2384 14.382C16.8046 14.3821 16.4524 14.7385 16.4523 15.1769C16.4525 15.6152 16.8047 15.9708 17.2384 15.9708H19.3341C19.7677 15.9706 20.1191 15.6152 20.1193 15.1769C20.1192 14.7385 19.7678 14.3822 19.3341 14.382H17.2384ZM15.1437 11.2062C14.7098 11.2063 14.3576 11.5617 14.3575 12.0001C14.3576 12.4386 14.7098 12.794 15.1437 12.7941H19.3341C19.7678 12.7939 20.1192 12.4385 20.1193 12.0001C20.1192 11.5618 19.7678 11.2064 19.3341 11.2062H15.1437ZM7.8097 7.76479C7.23363 7.76485 6.74046 7.97226 6.3302 8.38686C5.92001 8.80144 5.7151 9.29986 5.71497 9.88198C5.71497 10.4641 5.9202 10.9625 6.3302 11.3771C6.74047 11.7918 7.23359 12.0001 7.8097 12.0001C8.38589 12.0001 8.87887 11.7918 9.28919 11.3771C9.69934 10.9624 9.9054 10.4642 9.9054 9.88198C9.90527 9.29986 9.69938 8.80144 9.28919 8.38686C8.87892 7.97235 8.38576 7.76479 7.8097 7.76479ZM13.048 8.02944C12.6142 8.02951 12.262 8.385 12.2618 8.82339C12.2618 9.26192 12.6141 9.61726 13.048 9.61733H19.3341C19.7679 9.61712 20.1193 9.26184 20.1193 8.82339C20.1191 8.38509 19.7678 8.02966 19.3341 8.02944H13.048Z" fill="#434343"/>
</svg>
