<svg width="16" height="16" viewBox="0 0 16 16" fill="none" xmlns="http://www.w3.org/2000/svg">
<path d="M13 5.90692C13.0003 5.02423 12.7784 4.15642 12.3557 3.38747C11.9331 2.61852 11.324 1.97449 10.5874 1.51772C9.85085 1.06095 9.01176 0.806905 8.15137 0.780183C7.29098 0.753461 6.43843 0.954965 5.67626 1.36519C4.91408 1.77541 4.2681 2.38047 3.80083 3.12177C3.33356 3.86308 3.06083 4.71553 3.00905 5.59662C2.95728 6.4777 3.1282 7.35757 3.50528 8.15105C3.88235 8.94453 4.45281 9.62475 5.16143 10.1259L3.1811 13.6424C3.0985 13.789 3.19843 13.9723 3.36481 13.9794L4.61143 14.0321L5.27713 15.1097C5.36632 15.2541 5.57512 15.2497 5.65842 15.1018L7.95 11.0312L8 11.0341C8.025 11.0356 8.03286 11.0319 8.05 11.0312L10.3455 15.1086C10.4278 15.255 10.6336 15.2612 10.7245 15.1201L11.4057 14.0621L12.6432 13.9859C12.8076 13.9758 12.9044 13.7942 12.8227 13.6491L10.8386 10.1259C11.5054 9.65504 12.0506 9.02498 12.4272 8.29C12.8037 7.55501 13.0003 6.73715 13 5.90692ZM4.42857 5.90692C4.42857 5.18258 4.63803 4.47452 5.03047 3.87226C5.4229 3.27 5.98068 2.8006 6.63327 2.52341C7.28587 2.24622 8.00396 2.17369 8.69675 2.315C9.38954 2.45631 10.0259 2.80511 10.5254 3.31729C11.0249 3.82947 11.365 4.48203 11.5028 5.19244C11.6406 5.90285 11.5699 6.63921 11.2996 7.30841C11.0293 7.9776 10.5715 8.54957 9.98418 8.95199C9.39686 9.35441 8.70636 9.5692 8 9.5692C7.0528 9.5692 6.14439 9.18335 5.47462 8.49654C4.80485 7.80973 4.42857 6.87821 4.42857 5.90692Z" fill="#8C8C8C"/>
<path d="M8 8.66684C9.53412 8.66684 10.7778 7.4054 10.7778 5.84934C10.7778 4.29327 9.53412 3.03183 8 3.03183C6.46588 3.03183 5.22222 4.29327 5.22222 5.84934C5.22222 7.4054 6.46588 8.66684 8 8.66684Z" fill="#8C8C8C"/>
</svg>
