<svg width="16" height="16" viewBox="0 0 16 16" fill="none" xmlns="http://www.w3.org/2000/svg">
<g clip-path="url(#clip0_452_3589)">
<mask id="mask0_452_3589" style="mask-type:alpha" maskUnits="userSpaceOnUse" x="0" y="0" width="16" height="16">
<rect width="16" height="16" fill="#D9D9D9"/>
</mask>
<g mask="url(#mask0_452_3589)">
<path d="M8.0639 8.35714C7.46866 8.35714 6.9627 8.14881 6.54604 7.73214C6.12937 7.31548 5.92104 6.80952 5.92104 6.21429C5.92104 5.61905 6.12937 5.11309 6.54604 4.69643C6.9627 4.27976 7.46866 4.07143 8.0639 4.07143C8.65913 4.07143 9.16509 4.27976 9.58175 4.69643C9.99842 5.11309 10.2068 5.61905 10.2068 6.21429C10.2068 6.80952 9.99842 7.31548 9.58175 7.73214C9.16509 8.14881 8.65913 8.35714 8.0639 8.35714ZM3.77818 15.5V9.98214C3.3258 9.48214 2.97461 8.91071 2.72461 8.26786C2.47461 7.625 2.34961 6.94048 2.34961 6.21429C2.34961 4.61905 2.90318 3.26786 4.01032 2.16071C5.11747 1.05357 6.46866 0.5 8.0639 0.5C9.65913 0.5 11.0103 1.05357 12.1175 2.16071C13.2246 3.26786 13.7782 4.61905 13.7782 6.21429C13.7782 6.94048 13.6532 7.625 13.4032 8.26786C13.1532 8.91071 12.802 9.48214 12.3496 9.98214V15.5L8.0639 14.0714L3.77818 15.5ZM8.0639 10.5C9.25437 10.5 10.2663 10.0833 11.0996 9.25C11.9329 8.41667 12.3496 7.40476 12.3496 6.21429C12.3496 5.02381 11.9329 4.0119 11.0996 3.17857C10.2663 2.34524 9.25437 1.92857 8.0639 1.92857C6.87342 1.92857 5.86151 2.34524 5.02818 3.17857C4.19485 4.0119 3.77818 5.02381 3.77818 6.21429C3.77818 7.40476 4.19485 8.41667 5.02818 9.25C5.86151 10.0833 6.87342 10.5 8.0639 10.5Z" fill="#8C8C8C"/>
</g>
</g>
<defs>
<clipPath id="clip0_452_3589">
<rect width="16" height="16" fill="white"/>
</clipPath>
</defs>
</svg>
