<svg width="16" height="16" viewBox="0 0 16 16" fill="none" xmlns="http://www.w3.org/2000/svg">
<path d="M3.5 9.5V3.5C3.5 3.36739 3.55268 3.24021 3.64645 3.14645C3.74021 3.05268 3.86739 3 4 3H12C12.1326 3 12.2598 3.05268 12.3536 3.14645C12.4473 3.24021 12.5 3.36739 12.5 3.5V11.5C12.5 11.8978 12.342 12.2794 12.0607 12.5607C11.7794 12.842 11.3978 13 11 13H4C3.60218 13 3.22064 12.842 2.93934 12.5607C2.65804 12.2794 2.5 11.8978 2.5 11.5V10.5H10.5V11.5C10.5 11.6326 10.5527 11.7598 10.6464 11.8536C10.7402 11.9473 10.8674 12 11 12C11.1326 12 11.2598 11.9473 11.3536 11.8536C11.4473 11.7598 11.5 11.6326 11.5 11.5V9.5H3.5Z" fill="#8C8C8C"/>
</svg>
