<svg width="131" height="44" viewBox="0 0 131 44" fill="none" xmlns="http://www.w3.org/2000/svg">
<path d="M21.5878 44C8.47479 44 0 34.8953 0 23.3284C0 11.8187 8.47479 2.71402 21.5878 2.71402C27.8246 2.71402 32.1274 4.74248 34.3675 6.27321C34.7314 6.52189 34.8308 7.0072 34.6187 7.3936L31.2762 13.4833C31.0239 13.9431 30.4351 14.0852 29.9807 13.8234C28.5789 13.0158 25.8393 11.7614 21.9887 11.7614C14.7164 11.7614 9.96361 16.2279 9.96361 23.3284C9.96361 30.4861 14.7164 34.9526 21.9887 34.9526C25.8393 34.9526 28.5789 33.6982 29.9807 32.8907C30.4351 32.6289 31.0239 32.7709 31.2762 33.2307L34.6187 39.3204C34.8308 39.7068 34.7315 40.1922 34.3692 40.4433C32.1612 41.9738 28.029 44 21.5878 44Z" fill="white"/>
<path d="M62.0765 25.5351C62.2392 25.9473 62.3929 26.4013 62.5121 26.7736C62.6522 27.2114 62.4223 27.6764 61.9947 27.8451L47.0551 33.7419C46.4484 33.9814 46.3067 34.7627 46.8728 35.0867C48.545 36.0439 50.8213 36.2568 53.3019 35.2777C56.0404 34.1968 57.2725 32.5143 57.9687 31.3491C58.2467 30.8838 58.8544 30.7689 59.2736 31.1123L63.6778 34.7196C63.9927 34.9775 64.0977 35.4162 63.8998 35.7718C62.8733 37.6158 60.4419 40.5856 55.1183 42.6869C47.2886 45.7773 39.2222 42.4972 36.4051 35.36C33.5879 28.2227 36.8133 20.4857 44.3767 17.5004C52.0999 14.452 59.1753 18.1848 62.0765 25.5351ZM47.2822 23.9256C45.2778 24.7167 43.9997 26.0392 43.7398 27.9938C43.66 28.594 44.2813 28.9884 44.8446 28.7661L51.8632 25.9958C52.3849 25.7899 52.5921 25.152 52.1871 24.7641C50.9495 23.5783 49.0927 23.2109 47.2822 23.9256Z" fill="white"/>
<path d="M84.6562 14.8536C85.2294 14.8536 85.7771 14.8791 86.2993 14.9471C86.7401 15.0045 87.034 15.4112 86.9974 15.8542L86.4193 22.835C86.3689 23.4438 85.7411 23.8027 85.1471 23.6603C84.7222 23.5584 84.2326 23.5002 83.5683 23.5002C80.018 23.5002 77.4412 25.4471 77.4412 29.1118V40.8148C77.4412 41.3089 77.0406 41.7095 76.5465 41.7095H69.2885C68.7944 41.7095 68.3938 41.3089 68.3938 40.8148V16.2637C68.3938 15.7695 68.7944 15.3689 69.2885 15.3689H75.1695C75.5461 15.3689 75.8587 15.66 75.8855 16.0357C75.9429 16.8395 77.8678 17.3157 78.5013 16.8176C80.0552 15.5961 82.2129 14.8536 84.6562 14.8536Z" fill="white"/>
<path d="M105.173 42.9911C98.2439 42.9911 94.2356 39.1546 94.2356 32.2259V24.6458C94.2356 24.1517 93.835 23.7511 93.3409 23.7511H89.8049C89.3108 23.7511 88.9102 23.3505 88.9102 22.8564V17.0299C88.9102 16.5358 89.3108 16.1352 89.8049 16.1352H93.6272C94.1213 16.1352 94.5219 15.7346 94.5219 15.2405V7.98252C94.5219 7.48838 94.9225 7.0878 95.4166 7.0878H102.388C102.882 7.0878 103.283 7.48838 103.283 7.98252V15.2405C103.283 15.7346 103.684 16.1352 104.178 16.1352H111.607C112.102 16.1352 112.502 16.5358 112.502 17.0299V22.8564C112.502 23.3505 112.102 23.7511 111.607 23.7511H104.178C103.684 23.7511 103.283 24.1517 103.283 24.6458V31.1379C103.283 33.8865 105.173 34.8027 107.349 34.8027C108.667 34.8027 109.696 34.4352 110.437 34.0734C110.911 33.8417 111.491 34.0149 111.712 34.4942L114.078 39.6208C114.26 40.0139 114.137 40.4839 113.773 40.7185C112.375 41.6204 109.708 42.9911 105.173 42.9911Z" fill="white"/>
<path d="M123.542 12.5738C120.335 12.5738 117.873 10.3406 117.873 7.07668C117.873 3.87 120.335 1.69404 123.542 1.63678C126.748 1.57952 129.325 3.87 129.325 7.07668C129.325 10.3406 126.748 12.5738 123.542 12.5738ZM120.027 43.0373C119.533 43.0373 119.133 42.6367 119.133 42.1426V17.5914C119.133 17.0973 119.533 16.6967 120.027 16.6967H127.285C127.779 16.6967 128.18 17.0973 128.18 17.5914V42.1426C128.18 42.6367 127.779 43.0373 127.285 43.0373H120.027Z" fill="white"/>
<path d="M122.24 0.898131C122.792 -0.299377 124.494 -0.299377 125.046 0.898131C125.383 1.63036 126.227 1.97989 126.983 1.7007C128.22 1.24411 129.423 2.44753 128.967 3.68447C128.688 4.4408 129.037 5.28464 129.769 5.62204C130.967 6.17383 130.967 7.87572 129.769 8.42751C129.037 8.76491 128.688 9.60875 128.967 10.3651C129.423 11.602 128.22 12.8054 126.983 12.3489C126.227 12.0697 125.383 12.4192 125.046 13.1514C124.494 14.3489 122.792 14.3489 122.24 13.1514C121.903 12.4192 121.059 12.0697 120.302 12.3489C119.066 12.8054 117.862 11.602 118.319 10.3651C118.598 9.60875 118.248 8.76491 117.516 8.42751C116.319 7.87572 116.319 6.17383 117.516 5.62204C118.248 5.28464 118.598 4.4408 118.319 3.68447C117.862 2.44753 119.066 1.24411 120.302 1.7007C121.059 1.97989 121.903 1.63036 122.24 0.898131Z" fill="white"/>
</svg>
