<svg width="48" height="48" viewBox="0 0 48 48" fill="none" xmlns="http://www.w3.org/2000/svg">
<g filter="url(#filter0_d_681_22777)">
<rect x="12" y="12" width="24" height="24" rx="12" fill="#6588FF" shape-rendering="crispEdges"/>
<path fill-rule="evenodd" clip-rule="evenodd" d="M28.5187 20.2925C28.699 20.4801 28.8002 20.7343 28.8002 20.9993C28.8002 21.2644 28.699 21.5186 28.5187 21.7062L22.7438 27.7075C22.5633 27.8948 22.3187 28 22.0636 28C21.8086 28 21.564 27.8948 21.3835 27.7075L19.4585 25.707C19.2885 25.5174 19.1959 25.2667 19.2003 25.0075C19.2047 24.7484 19.3058 24.5012 19.4821 24.3179C19.6584 24.1346 19.8964 24.0297 20.1457 24.0251C20.3951 24.0205 20.6364 24.1167 20.8188 24.2934L22.0636 25.587L27.1584 20.2925C27.3389 20.1052 27.5835 20 27.8386 20C28.0936 20 28.3382 20.1052 28.5187 20.2925Z" fill="#F8F8F8"/>
</g>
<defs>
<filter id="filter0_d_681_22777" x="0" y="0" width="48" height="48" filterUnits="userSpaceOnUse" color-interpolation-filters="sRGB">
<feFlood flood-opacity="0" result="BackgroundImageFix"/>
<feColorMatrix in="SourceAlpha" type="matrix" values="0 0 0 0 0 0 0 0 0 0 0 0 0 0 0 0 0 0 127 0" result="hardAlpha"/>
<feOffset/>
<feGaussianBlur stdDeviation="6"/>
<feComposite in2="hardAlpha" operator="out"/>
<feColorMatrix type="matrix" values="0 0 0 0 0.396078 0 0 0 0 0.533333 0 0 0 0 1 0 0 0 0.4 0"/>
<feBlend mode="normal" in2="BackgroundImageFix" result="effect1_dropShadow_681_22777"/>
<feBlend mode="normal" in="SourceGraphic" in2="effect1_dropShadow_681_22777" result="shape"/>
</filter>
</defs>
</svg>
