<svg width="24" height="24" viewBox="0 0 24 24" fill="none" xmlns="http://www.w3.org/2000/svg">
<path d="M3 18.9429V9.68571C3 9.36 3.07987 9.05143 3.23962 8.76C3.39937 8.46857 3.6195 8.22857 3.9 8.04L10.65 3.41143C11.0437 3.13714 11.4937 3 12 3C12.5062 3 12.9562 3.13714 13.35 3.41143L20.1 8.04C20.3812 8.22857 20.6017 8.46857 20.7615 8.76C20.9212 9.05143 21.0007 9.36 21 9.68571V18.9429C21 19.5086 20.7795 19.993 20.3385 20.3962C19.8975 20.7994 19.368 21.0007 18.75 21H15.375C15.0562 21 14.7892 20.9013 14.574 20.7038C14.3587 20.5063 14.2507 20.2622 14.25 19.9714V14.8286C14.25 14.5371 14.142 14.293 13.926 14.0962C13.71 13.8994 13.443 13.8007 13.125 13.8H10.875C10.5562 13.8 10.2892 13.8987 10.074 14.0962C9.85875 14.2937 9.75075 14.5378 9.75 14.8286V19.9714C9.75 20.2629 9.642 20.5073 9.426 20.7048C9.21 20.9023 8.943 21.0007 8.625 21H5.25C4.63125 21 4.10175 20.7987 3.6615 20.3962C3.22125 19.9937 3.00075 19.5093 3 18.9429Z" fill="#434343"/>
</svg>
