<svg width="24" height="24" viewBox="0 0 24 24" fill="none" xmlns="http://www.w3.org/2000/svg">
<path fill-rule="evenodd" clip-rule="evenodd" d="M11.5616 4C10.3558 4.0001 9.16739 4.28857 8.09567 4.84133C7.02396 5.3941 6.09997 6.19513 5.40081 7.1776C4.70165 8.16007 4.24759 9.29549 4.0765 10.4891C3.90541 11.6828 4.02227 12.9 4.41731 14.0393C4.81235 15.1786 5.47413 16.2069 6.34743 17.0384C7.22074 17.8699 8.28024 18.4806 9.43754 18.8194C10.5948 19.1582 11.8164 19.2153 13.0003 18.986C14.1841 18.7567 15.296 18.2477 16.2431 17.5013L19.4922 20.7503C19.66 20.9123 19.8848 21.002 20.1181 21C20.3513 20.9979 20.5745 20.9044 20.7394 20.7394C20.9044 20.5745 20.9979 20.3513 21 20.1181C21.002 19.8848 20.9123 19.6601 20.7503 19.4923L17.5011 16.2433C18.3801 15.1282 18.9274 13.7882 19.0804 12.3767C19.2334 10.9651 18.9858 9.53896 18.3661 8.26149C17.7464 6.98402 16.7795 5.90683 15.5761 5.15319C14.3728 4.39955 12.9815 3.9999 11.5616 4ZM5.77872 11.562C5.77872 10.0283 6.38799 8.55747 7.4725 7.47301C8.557 6.38854 10.0279 5.77929 11.5616 5.77929C13.0954 5.77929 14.5663 6.38854 15.6508 7.47301C16.7353 8.55747 17.3446 10.0283 17.3446 11.562C17.3446 13.0957 16.7353 14.5665 15.6508 15.651C14.5663 16.7355 13.0954 17.3447 11.5616 17.3447C10.0279 17.3447 8.557 16.7355 7.4725 15.651C6.38799 14.5665 5.77872 13.0957 5.77872 11.562Z" fill="#8C8C8C"/>
</svg>
