<svg width="32" height="32" viewBox="0 0 32 32" fill="none" xmlns="http://www.w3.org/2000/svg">
<rect width="32" height="32" rx="16" fill="#456FFE"/>
<path fill-rule="evenodd" clip-rule="evenodd" d="M21.2176 15.165L13.3368 23.0156L9.23229 23.9609C9.16124 23.9686 9.08946 23.9686 9.01842 23.9609C8.86582 23.96 8.71533 23.9249 8.57799 23.8584C8.44065 23.7919 8.31981 23.6953 8.22447 23.5762C8.12927 23.4571 8.06198 23.3184 8.02721 23.1699C7.99248 23.0214 7.9908 22.8668 8.0233 22.7178L8.96861 18.6377L16.8192 10.7773L21.2176 15.165ZM20.0331 8C20.3053 8 20.5666 8.1078 20.7596 8.2998L23.6952 11.2354C23.7911 11.3306 23.8675 11.4437 23.9198 11.5684C23.9721 11.6932 23.9994 11.8275 23.9999 11.9629C24.0003 12.0982 23.9741 12.2323 23.9227 12.3574C23.8713 12.4825 23.7954 12.5965 23.7001 12.6924L22.0682 14.3242L17.6747 9.93164L19.3065 8.2998C19.4994 8.10785 19.7609 8.00006 20.0331 8Z" fill="white"/>
</svg>
