<svg width="50" height="50" viewBox="0 0 50 50" fill="none" xmlns="http://www.w3.org/2000/svg">
<mask id="path-1-inside-1_527_9631" fill="white">
<path d="M36.1299 10C35.6637 10 35.227 10.2316 34.9648 10.6182L33.8887 12.2061C33.6806 12.5129 33.6132 12.8551 33.6553 13.1768H5.1123C3.94596 13.1768 3.00013 14.1245 3 15.2939V37.8818C3 39.0514 3.94588 40 5.1123 40H44.8877C46.0541 40 47 39.0514 47 37.8818V15.2939C46.9999 14.4841 46.5461 13.7809 45.8799 13.4248C45.922 13.2908 45.9443 13.148 45.9443 13V11.4121C45.9443 10.6324 45.3137 10 44.5361 10H36.1299Z"/>
</mask>
<path d="M36.1299 10C35.6637 10 35.227 10.2316 34.9648 10.6182L33.8887 12.2061C33.6806 12.5129 33.6132 12.8551 33.6553 13.1768H5.1123C3.94596 13.1768 3.00013 14.1245 3 15.2939V37.8818C3 39.0514 3.94588 40 5.1123 40H44.8877C46.0541 40 47 39.0514 47 37.8818V15.2939C46.9999 14.4841 46.5461 13.7809 45.8799 13.4248C45.922 13.2908 45.9443 13.148 45.9443 13V11.4121C45.9443 10.6324 45.3137 10 44.5361 10H36.1299Z" fill="url(#paint0_linear_527_9631)"/>
<path d="M34.9648 10.6182L34.137 10.0571L34.1372 10.0569L34.9648 10.6182ZM33.8887 12.2061L34.7165 12.7671L34.7163 12.7673L33.8887 12.2061ZM33.6553 13.1768L34.6468 13.0472L34.7944 14.1768H33.6553V13.1768ZM3 15.2939H2V15.2938L3 15.2939ZM47 15.2939L48 15.2938V15.2939H47ZM45.8799 13.4248L45.4085 14.3067L44.6774 13.9159L44.9259 13.125L45.8799 13.4248ZM45.9443 13H46.9443V13L45.9443 13ZM36.1299 10V11C35.9958 11 35.8688 11.0669 35.7925 11.1794L34.9648 10.6182L34.1372 10.0569C34.5852 9.39639 35.3316 9 36.1299 9V10ZM34.9648 10.6182L35.7926 11.1792L34.7165 12.7671L33.8887 12.2061L33.0609 11.645L34.137 10.0571L34.9648 10.6182ZM33.8887 12.2061L34.7163 12.7673C34.6517 12.8626 34.635 12.9569 34.6468 13.0472L33.6553 13.1768L32.6637 13.3063C32.5914 12.7532 32.7095 12.1632 33.061 11.6448L33.8887 12.2061ZM33.6553 13.1768V14.1768H5.1123V13.1768V12.1768H33.6553V13.1768ZM5.1123 13.1768V14.1768C4.5004 14.1768 4.00006 14.6747 4 15.2941L3 15.2939L2 15.2938C2.00018 13.5744 3.39152 12.1768 5.1123 12.1768V13.1768ZM3 15.2939H4V37.8818H3H2V15.2939H3ZM3 37.8818H4C4 38.5017 4.50081 39 5.1123 39V40V41C3.39095 41 2 39.601 2 37.8818H3ZM5.1123 40V39H44.8877V40V41H5.1123V40ZM44.8877 40V39C45.4992 39 46 38.5017 46 37.8818H47H48C48 39.601 46.609 41 44.8877 41V40ZM47 37.8818H46V15.2939H47H48V37.8818H47ZM47 15.2939L46 15.2941C46 14.8672 45.7619 14.4957 45.4085 14.3067L45.8799 13.4248L46.3513 12.5429C47.3304 13.0662 47.9999 14.101 48 15.2938L47 15.2939ZM45.8799 13.4248L44.9259 13.125C44.9373 13.0886 44.9443 13.047 44.9443 13L45.9443 13L46.9443 13C46.9443 13.249 46.9067 13.4929 46.8339 13.7246L45.8799 13.4248ZM45.9443 13H44.9443V11.4121H45.9443H46.9443V13H45.9443ZM45.9443 11.4121H44.9443C44.9443 11.1821 44.7588 11 44.5361 11V10V9C45.8687 9 46.9443 10.0828 46.9443 11.4121H45.9443ZM44.5361 10V11H36.1299V10V9H44.5361V10Z" fill="#6588FF" mask="url(#path-1-inside-1_527_9631)"/>
<ellipse cx="3.21507" cy="4.1447" rx="3.21507" ry="4.1447" transform="matrix(-1 0 0 1 26.6211 20.6578)" fill="white"/>
<ellipse cx="2.29648" cy="2.30261" rx="2.29648" ry="2.30261" transform="matrix(-1 0 0 1 26.5283 23.0261)" fill="black"/>
<ellipse cx="3.21507" cy="4.1447" rx="3.21507" ry="4.1447" transform="matrix(-1 0 0 1 20.1914 20.6578)" fill="white"/>
<ellipse cx="2.29648" cy="2.30261" rx="2.29648" ry="2.30261" transform="matrix(-1 0 0 1 20.2295 23.0261)" fill="black"/>
<defs>
<linearGradient id="paint0_linear_527_9631" x1="23.9695" y1="6.84211" x2="25.0055" y2="50.274" gradientUnits="userSpaceOnUse">
<stop offset="0.00961538" stop-color="#91C3FF"/>
<stop offset="0.153846" stop-color="#E0EEFF"/>
<stop offset="0.677885" stop-color="#91C3FF"/>
</linearGradient>
</defs>
</svg>
