<svg width="24" height="24" viewBox="0 0 24 24" fill="none" xmlns="http://www.w3.org/2000/svg">
<path d="M9 5.75879V7.75879M15 5.75879V7.75879" stroke="#BFBFBF" stroke-width="2" stroke-linecap="round"/>
<path d="M5 10.5823C5 9.25102 5 8.58608 5.4102 8.17244C5.8204 7.75879 6.4798 7.75879 7.8 7.75879H16.2C17.5202 7.75879 18.1796 7.75879 18.5898 8.17244C19 8.58608 19 9.25102 19 10.5823C19 10.9148 19 11.0814 18.8978 11.1851C18.7949 11.2882 18.629 11.2882 18.3 11.2882H5.7C5.3703 11.2882 5.2051 11.2882 5.1022 11.1851C5 11.0814 5 10.9141 5 10.5823ZM5 16.9353C5 18.2666 5 18.9315 5.4102 19.3451C5.8204 19.7588 6.4798 19.7588 7.8 19.7588H16.2C17.5202 19.7588 18.1796 19.7588 18.5898 19.3451C19 18.9315 19 18.2666 19 16.9353V13.4058C19 13.0734 19 12.9068 18.8978 12.803C18.7949 12.7 18.629 12.7 18.3 12.7H5.7C5.3703 12.7 5.2051 12.7 5.1022 12.803C5 12.9068 5 13.0741 5 13.4058V16.9353Z" fill="#BFBFBF"/>
</svg>
