<svg width="255" height="243" viewBox="0 0 255 243" fill="none" xmlns="http://www.w3.org/2000/svg">
<path d="M64.7232 68.1299C64.5633 62.6609 68.7908 58.0571 74.1656 57.847L139.856 55.2794C145.23 55.0693 149.717 59.3445 149.877 64.8135C150.918 100.433 151.609 124.069 152.65 159.688C152.81 165.157 148.583 169.773 143.208 169.983L77.5183 172.551C72.1436 172.761 67.6569 168.498 67.497 163.029L64.7232 68.1299Z" fill="#456FFE"/>
<path d="M76.5405 53.6723C76.5164 53.2171 76.8595 52.825 77.307 52.7965L91.6246 51.8845C92.072 51.856 92.4543 52.2025 92.4784 52.6577C92.8733 60.1083 93.1169 64.703 93.5033 71.9949C93.5373 72.6356 92.8713 73.076 92.3138 72.7808L86.156 69.5198C85.9017 69.3852 85.5952 69.3983 85.3504 69.5543L78.8055 73.7256C78.2815 74.0596 77.6022 73.704 77.569 73.0784L76.5405 53.6723Z" fill="#91C3FF"/>
<g filter="url(#filter0_d_1276_11282)">
<path d="M113.001 66.6503C114.99 61.6693 120.666 59.2446 125.679 61.2346L186.952 85.5559C191.965 87.5459 194.413 93.2079 192.424 98.1889C179.474 130.63 170.88 152.157 157.929 184.598C155.941 189.579 150.261 192.014 145.247 190.024L83.9748 165.703C78.9614 163.713 76.5093 158.062 78.4977 153.081L113.001 66.6503Z" fill="white"/>
<path d="M123.595 123.53C124.009 122.493 125.191 121.988 126.236 122.402L163.302 137.115C164.346 137.53 164.857 138.707 164.443 139.745C164.029 140.782 162.846 141.287 161.802 140.873L124.736 126.16C123.691 125.745 123.18 124.568 123.595 123.53Z" fill="#B6D7FF"/>
<path d="M119.394 134.052C119.808 133.015 120.991 132.51 122.035 132.924L159.101 147.637C160.146 148.052 160.657 149.229 160.242 150.267C159.828 151.304 158.646 151.809 157.601 151.395L120.535 136.682C119.491 136.267 118.98 135.09 119.394 134.052Z" fill="#B6D7FF"/>
<path d="M115.194 144.574C115.608 143.537 116.79 143.032 117.835 143.446L154.901 158.159C155.945 158.574 156.456 159.751 156.042 160.789C155.628 161.826 154.445 162.331 153.401 161.917L116.335 147.204C115.29 146.789 114.779 145.612 115.194 144.574Z" fill="#B6D7FF"/>
<path d="M110.993 155.096C111.408 154.059 112.59 153.554 113.634 153.968L131.789 161.174C132.834 161.589 133.345 162.766 132.93 163.804C132.516 164.842 131.334 165.347 130.289 164.932L112.134 157.726C111.09 157.311 110.579 156.134 110.993 155.096Z" fill="#B6D7FF"/>
<path d="M117.574 96.7402C117.74 96.3251 118.213 96.1231 118.63 96.2889L129.056 100.428C129.474 100.593 129.678 101.065 129.512 101.48C128.128 104.948 127.221 107.217 125.871 110.6C125.657 111.137 124.962 111.283 124.546 110.878L120.908 107.34C120.76 107.196 120.561 107.113 120.352 107.109L114.661 107.01C114.091 107 113.707 106.427 113.917 105.901L117.574 96.7402Z" fill="#6588FF"/>
<path d="M131.976 76.5846C132.343 76.4694 132.741 76.6259 132.931 76.9596L135.367 81.2463C135.445 81.3832 135.561 81.4948 135.701 81.5673L140.094 83.8378C140.436 84.0146 140.607 84.4052 140.504 84.7739L139.183 89.5105C139.141 89.6618 139.144 89.8222 139.192 89.9721L140.692 94.6629C140.809 95.028 140.652 95.4239 140.317 95.6117L136.013 98.0236C135.875 98.1007 135.764 98.216 135.691 98.3554L133.419 102.719C133.242 103.058 132.85 103.228 132.479 103.124L127.713 101.799C127.561 101.756 127.399 101.759 127.249 101.806L122.536 103.286C122.169 103.401 121.771 103.245 121.581 102.911L119.145 98.6245C119.067 98.4875 118.951 98.3759 118.811 98.3034L114.418 96.0329C114.076 95.8562 113.905 95.4656 114.007 95.0968L115.328 90.3602C115.371 90.2089 115.368 90.0485 115.32 89.8986L113.82 85.2079C113.703 84.8427 113.86 84.4468 114.195 84.259L118.499 81.8471C118.636 81.77 118.748 81.6548 118.821 81.5154L121.093 77.1521C121.27 76.8125 121.662 76.6432 122.033 76.7463L126.799 78.072C126.951 78.1143 127.113 78.1117 127.263 78.0644L131.976 76.5846Z" fill="#91C3FF"/>
<path d="M132.696 91.3335C132.082 94.1723 129.268 95.9723 126.412 95.3539C123.556 94.7355 121.739 91.9329 122.354 89.0941C122.969 86.2553 125.782 84.4553 128.638 85.0737C131.494 85.6921 133.311 88.4947 132.696 91.3335Z" fill="#6588FF"/>
</g>
<g opacity="0.9" filter="url(#filter1_i_1276_11282)">
<rect x="33.1777" y="130.675" width="172.087" height="108.793" rx="12" transform="rotate(-7.93647 33.1777 130.675)" fill="#C5D2FF" fill-opacity="0.5"/>
<path d="M42.8927 129.321C41.9898 122.844 46.5082 116.862 52.9849 115.959L86.1758 111.332C90.0772 110.788 93.9971 112.193 96.664 115.092L102.153 121.059L42.8927 129.321Z" fill="#C5D2FF" fill-opacity="0.5"/>
</g>
<path d="M203.722 54.8771C204.743 53.1388 207.257 53.1388 208.278 54.8771C208.821 55.8013 209.869 56.3059 210.93 56.1542C212.926 55.869 214.493 57.8342 213.771 59.7166C213.387 60.7175 213.646 61.8512 214.426 62.5864C215.894 63.9691 215.334 66.4196 213.412 67.0286C212.39 67.3525 211.665 68.2616 211.577 69.33C211.411 71.3394 209.146 72.43 207.472 71.307C206.581 70.7099 205.419 70.7099 204.528 71.307C202.854 72.43 200.589 71.3394 200.423 69.33C200.335 68.2616 199.61 67.3525 198.588 67.0286C196.666 66.4196 196.106 63.9691 197.574 62.5864C198.354 61.8512 198.613 60.7175 198.229 59.7166C197.507 57.8342 199.074 55.869 201.07 56.1542C202.131 56.3059 203.179 55.8013 203.722 54.8771Z" fill="#F7F8FE"/>
<path d="M60.5826 7.81562C62.1148 5.20817 65.8852 5.20817 67.4174 7.81562C68.232 9.20201 69.8036 9.95882 71.3954 9.73136C74.3893 9.30355 76.7401 12.2513 75.6568 15.075C75.0808 16.5763 75.469 18.2768 76.6393 19.3796C78.8405 21.4536 78.0015 25.1294 75.1185 26.043C73.5856 26.5287 72.498 27.8924 72.3656 29.495C72.1164 32.509 68.7194 34.1449 66.2077 32.4605C64.8721 31.5649 63.1279 31.5649 61.7923 32.4605C59.2806 34.1449 55.8836 32.509 55.6344 29.495C55.502 27.8924 54.4145 26.5287 52.8815 26.043C49.9985 25.1294 49.1595 21.4536 51.3607 19.3796C52.531 18.2768 52.9192 16.5763 52.3432 15.075C51.2599 12.2513 53.6107 9.30355 56.6046 9.73136C58.1964 9.95882 59.768 9.20201 60.5826 7.81562Z" fill="#F7F8FE"/>
<path d="M233.583 100.816C235.115 98.2082 238.885 98.2082 240.417 100.816C241.232 102.202 242.804 102.959 244.395 102.731C247.389 102.304 249.74 105.251 248.657 108.075C248.081 109.576 248.469 111.277 249.639 112.38C251.84 114.454 251.001 118.129 248.118 119.043C246.586 119.529 245.498 120.892 245.366 122.495C245.116 125.509 241.719 127.145 239.208 125.46C237.872 124.565 236.128 124.565 234.792 125.46C232.281 127.145 228.884 125.509 228.634 122.495C228.502 120.892 227.414 119.529 225.882 119.043C222.999 118.129 222.16 114.454 224.361 112.38C225.531 111.277 225.919 109.576 225.343 108.075C224.26 105.251 226.611 102.304 229.605 102.731C231.196 102.959 232.768 102.202 233.583 100.816Z" fill="#E2E7FD"/>
<path d="M9.72175 86.8771C10.7432 85.1388 13.2568 85.1388 14.2782 86.8771C14.8214 87.8013 15.8691 88.3059 16.9303 88.1542C18.9262 87.869 20.4934 89.8342 19.7712 91.7166C19.3872 92.7175 19.646 93.8512 20.4262 94.5864C21.8936 95.9691 21.3343 98.4196 19.4123 99.0286C18.3904 99.3525 17.6653 100.262 17.577 101.33C17.4109 103.339 15.1463 104.43 13.4718 103.307C12.5814 102.71 11.4186 102.71 10.5282 103.307C8.8537 104.43 6.58905 103.339 6.42297 101.33C6.33466 100.262 5.60963 99.3525 4.5877 99.0286C2.66568 98.4196 2.10636 95.9691 3.57378 94.5864C4.35401 93.8512 4.61277 92.7175 4.22878 91.7166C3.50659 89.8342 5.07378 87.869 7.06971 88.1542C8.13095 88.3059 9.17864 87.8013 9.72175 86.8771Z" fill="#E2E7FD"/>
<defs>
<filter id="filter0_d_1276_11282" x="61.8066" y="44.5388" width="155.309" height="170.18" filterUnits="userSpaceOnUse" color-interpolation-filters="sRGB">
<feFlood flood-opacity="0" result="BackgroundImageFix"/>
<feColorMatrix in="SourceAlpha" type="matrix" values="0 0 0 0 0 0 0 0 0 0 0 0 0 0 0 0 0 0 127 0" result="hardAlpha"/>
<feOffset dx="4" dy="4"/>
<feGaussianBlur stdDeviation="10"/>
<feComposite in2="hardAlpha" operator="out"/>
<feColorMatrix type="matrix" values="0 0 0 0 0.396078 0 0 0 0 0.533333 0 0 0 0 1 0 0 0 0.1 0"/>
<feBlend mode="normal" in2="BackgroundImageFix" result="effect1_dropShadow_1276_11282"/>
<feBlend mode="normal" in="SourceGraphic" in2="effect1_dropShadow_1276_11282" result="shape"/>
</filter>
<filter id="filter1_i_1276_11282" x="30.7188" y="104.455" width="190.379" height="136.43" filterUnits="userSpaceOnUse" color-interpolation-filters="sRGB">
<feFlood flood-opacity="0" result="BackgroundImageFix"/>
<feBlend mode="normal" in="SourceGraphic" in2="BackgroundImageFix" result="shape"/>
<feColorMatrix in="SourceAlpha" type="matrix" values="0 0 0 0 0 0 0 0 0 0 0 0 0 0 0 0 0 0 127 0" result="hardAlpha"/>
<feOffset dx="-4" dy="-4"/>
<feGaussianBlur stdDeviation="6"/>
<feComposite in2="hardAlpha" operator="arithmetic" k2="-1" k3="1"/>
<feColorMatrix type="matrix" values="0 0 0 0 0.804969 0 0 0 0 0.852046 0 0 0 0 1 0 0 0 1 0"/>
<feBlend mode="normal" in2="shape" result="effect1_innerShadow_1276_11282"/>
</filter>
</defs>
</svg>
