<svg width="300" height="309" viewBox="0 0 300 309" fill="none" xmlns="http://www.w3.org/2000/svg">
<path d="M118.428 114.834L72.6313 83.2092" stroke="#F7F8FE" stroke-width="5" stroke-linecap="round"/>
<path d="M95.9238 50.6942L108.156 78.4777" stroke="#F7F8FE" stroke-width="5" stroke-linecap="round"/>
<path d="M146.217 100.59L119.465 2.99998" stroke="#F7F8FE" stroke-width="5" stroke-linecap="round"/>
<path d="M6.37695 112.502L103.055 142.381" stroke="#F7F8FE" stroke-width="5" stroke-linecap="round"/>
<path d="M238.031 237.389C240.702 244.097 233.822 250.631 227.261 247.619L92.7338 185.849C87.5898 183.487 86.4585 176.677 90.5626 172.778L170.323 97.0214C174.427 93.1232 181.17 94.6035 183.264 99.8622L238.031 237.389Z" fill="#F7F8FE"/>
<path d="M180.905 12.1774C181.345 11.5208 182.337 11.6106 182.652 12.3355L188.125 24.9192C188.202 25.0946 188.327 25.2444 188.485 25.3509L199.882 32.9935C200.539 33.4338 200.449 34.4258 199.724 34.7411L187.141 40.2139C186.965 40.2902 186.815 40.4152 186.709 40.574L179.066 51.971C178.626 52.6275 177.634 52.5378 177.319 51.8129L171.846 39.2292C171.769 39.0538 171.645 38.904 171.486 38.7975L160.089 31.1548C159.432 30.7146 159.522 29.7225 160.247 29.4073L172.831 23.9344C173.006 23.8581 173.156 23.7332 173.262 23.5743L180.905 12.1774Z" fill="#F7F8FE"/>
<path d="M61.2879 41.1314C61.2414 40.3422 62.0857 39.8137 62.7752 40.2003L69.0541 43.7209C69.2209 43.8144 69.411 43.8581 69.6019 43.8469L76.7879 43.4237C77.577 43.3772 78.1056 44.2215 77.719 44.911L74.1984 51.1898C74.1049 51.3566 74.0611 51.5468 74.0724 51.7377L74.4956 58.9237C74.5421 59.7128 73.6978 60.2413 73.0083 59.8547L66.7295 56.3342C66.5626 56.2407 66.3725 56.1969 66.1816 56.2082L58.9956 56.6314C58.2065 56.6779 57.678 55.8335 58.0646 55.144L61.5851 48.8652C61.6786 48.6984 61.7224 48.5083 61.7111 48.3174L61.2879 41.1314Z" fill="#F7F8FE"/>
<path d="M23.7301 93.3726C23.1979 92.7881 23.5224 91.8463 24.3016 91.7136L29.5604 90.818C29.7489 90.7859 29.9243 90.7004 30.0657 90.5716L34.0103 86.9804C34.5948 86.4482 35.5366 86.7727 35.6693 87.552L36.565 92.8107C36.5971 92.9993 36.6826 93.1746 36.8113 93.316L40.4026 97.2606C40.9347 97.8452 40.6103 98.7869 39.831 98.9197L34.5722 99.8153C34.3837 99.8474 34.2083 99.9329 34.0669 100.062L30.1223 103.653C29.5378 104.185 28.596 103.861 28.4633 103.081L27.5677 97.8226C27.5356 97.634 27.4501 97.4587 27.3213 97.3172L23.7301 93.3726Z" fill="#F7F8FE"/>
<path d="M6.88931 54.4613C6.1159 54.2978 5.82898 53.3439 6.38387 52.7809L14.0537 44.9989C14.1879 44.8627 14.2803 44.6909 14.3198 44.5038L16.5793 33.8136C16.7427 33.0401 17.6966 32.7532 18.2596 33.3081L26.0416 40.9779C26.1778 41.1122 26.3497 41.2045 26.5368 41.2441L37.227 43.5035C38.0004 43.667 38.2873 44.6208 37.7324 45.1839L30.0626 52.9658C29.9283 53.1021 29.836 53.2739 29.7964 53.461L27.537 64.1512C27.3735 64.9246 26.4197 65.2115 25.8567 64.6566L18.0747 56.9868C17.9385 56.8526 17.7666 56.7602 17.5795 56.7207L6.88931 54.4613Z" fill="#F7F8FE"/>
<path d="M33.5346 161.719C33.0024 161.135 33.3268 160.193 34.1061 160.06L41.2024 158.852C41.3909 158.819 41.5663 158.734 41.7077 158.605L47.0306 153.759C47.6151 153.227 48.5569 153.551 48.6896 154.331L49.8982 161.427C49.9303 161.615 50.0158 161.791 50.1445 161.932L54.9906 167.255C55.5228 167.84 55.1983 168.781 54.4191 168.914L47.3228 170.123C47.1343 170.155 46.9589 170.24 46.8175 170.369L41.4946 175.215C40.91 175.747 39.9683 175.423 39.8356 174.644L38.627 167.547C38.5949 167.359 38.5094 167.183 38.3806 167.042L33.5346 161.719Z" fill="#F7F8FE"/>
</svg>
