<svg width="16" height="16" viewBox="0 0 16 16" fill="none" xmlns="http://www.w3.org/2000/svg">
<path d="M5.5 3.75879V5.20619M10.5 3.75879V5.20619" stroke="#8C8C8C" stroke-width="2" stroke-linecap="round"/>
<path d="M3 7.13605C3 6.22612 3 5.77163 3.293 5.4889C3.586 5.20618 4.057 5.20618 5 5.20618H11C11.943 5.20618 12.414 5.20618 12.707 5.4889C13 5.77163 13 6.22612 13 7.13605C13 7.36329 13 7.47716 12.927 7.54808C12.8535 7.61852 12.735 7.61852 12.5 7.61852H3.5C3.2645 7.61852 3.1465 7.61852 3.073 7.54808C3 7.47716 3 7.36281 3 7.13605ZM3 11.4783C3 12.3882 3 12.8427 3.293 13.1254C3.586 13.4081 4.057 13.4081 5 13.4081H11C11.943 13.4081 12.414 13.4081 12.707 13.1254C13 12.8427 13 12.3882 13 11.4783V9.06593C13 8.83868 13 8.72482 12.927 8.6539C12.8535 8.58346 12.735 8.58346 12.5 8.58346H3.5C3.2645 8.58346 3.1465 8.58346 3.073 8.6539C3 8.72482 3 8.83916 3 9.06593V11.4783Z" fill="#8C8C8C"/>
</svg>
