<svg width="16" height="16" viewBox="0 0 16 16" fill="none" xmlns="http://www.w3.org/2000/svg">
<path d="M7.3 11.9L4.93333 9.53333L5.9 8.56667L7.3 9.96667L10.1 7.16667L11.0667 8.13333L7.3 11.9ZM3.33333 14.3333C2.96667 14.3333 2.65278 14.2028 2.39167 13.9417C2.13056 13.6806 2 13.3667 2 13V3.66667C2 3.3 2.13056 2.98611 2.39167 2.725C2.65278 2.46389 2.96667 2.33333 3.33333 2.33333H4V1H5.33333V2.33333H10.6667V1H12V2.33333H12.6667C13.0333 2.33333 13.3472 2.46389 13.6083 2.725C13.8694 2.98611 14 3.3 14 3.66667V13C14 13.3667 13.8694 13.6806 13.6083 13.9417C13.3472 14.2028 13.0333 14.3333 12.6667 14.3333H3.33333ZM3.33333 13H12.6667V6.33333H3.33333V13Z" fill="#8C8C8C"/>
</svg>
