<svg width="50" height="50" viewBox="0 0 50 50" fill="none" xmlns="http://www.w3.org/2000/svg">
<path d="M25.605 11C20.4098 11 15.89 13.9492 13.5629 18.2968C13.0601 18.8278 12.4134 19.067 11.7939 19.1496C11.1924 19.2299 10.631 19.1601 10.2864 19.0785C9.43127 18.6514 8.46992 18.4118 7.45378 18.4118C3.88946 18.4118 1 21.3614 1 25C1 28.6386 3.88946 31.5882 7.45378 31.5882C8.62318 31.5882 9.71949 31.2701 10.6653 30.7148C10.9407 30.6396 11.4286 30.5783 11.9329 30.6252C12.5234 30.6801 13.0658 30.8763 13.3364 31.2907L13.3478 31.283C15.6032 35.8595 20.2443 39 25.605 39C28.6779 39 31.5142 37.9677 33.8007 36.225L33.8283 36.2483C33.8638 36.2039 33.9007 36.161 33.9378 36.1189C34.2213 35.897 34.4959 35.6641 34.7614 35.4208C35.2821 35.0927 35.8593 34.8951 36.4206 34.7919C36.8893 34.7057 37.3394 34.686 37.726 34.7078C37.9835 34.7583 38.2446 34.7981 38.5091 34.8269C38.5587 34.8407 38.6047 34.8554 38.6465 34.8707L38.6568 34.8417C38.9414 34.8681 39.2296 34.8824 39.521 34.8824C44.7561 34.8824 49 30.55 49 25.2059C49 19.8617 44.7561 15.5294 39.521 15.5294C39.3772 15.5294 39.2342 15.5326 39.092 15.5391L39.0909 15.531C38.868 15.5613 38.4978 15.5437 38.0281 15.4675C37.5629 15.392 37.0144 15.2616 36.441 15.0758C35.6293 14.8127 34.7785 14.4412 34.0465 13.9664C33.8156 13.7821 33.5786 13.6056 33.3363 13.4364C33.2911 13.3972 33.2461 13.3584 33.2027 13.3182L33.1889 13.3339C31.0168 11.8593 28.4092 11 25.605 11Z" fill="url(#paint0_linear_527_9629)" stroke="#6588FF"/>
<ellipse cx="3.29412" cy="4.32353" rx="3.29412" ry="4.32353" transform="matrix(-1 0 0 1 32.4629 20.4705)" fill="white"/>
<ellipse cx="2.35294" cy="2.40196" rx="2.35294" ry="2.40196" transform="matrix(-1 0 0 1 30.5801 22.3923)" fill="black"/>
<ellipse cx="3.29412" cy="4.32353" rx="3.29412" ry="4.32353" transform="matrix(-1 0 0 1 25.875 20.4705)" fill="white"/>
<ellipse cx="2.35294" cy="2.40196" rx="2.35294" ry="2.40196" transform="matrix(-1 0 0 1 23.9922 22.3923)" fill="black"/>
<defs>
<linearGradient id="paint0_linear_527_9629" x1="25" y1="11" x2="25" y2="39" gradientUnits="userSpaceOnUse">
<stop stop-color="#F3F8FF"/>
<stop offset="0.745192" stop-color="#91C3FF"/>
</linearGradient>
</defs>
</svg>
