<svg width="200" height="24" viewBox="0 0 200 24" fill="none" xmlns="http://www.w3.org/2000/svg">
<line x1="24" y1="11.5" x2="44" y2="11.5" stroke="#D9D9D9" stroke-dasharray="2 2"/>
<line x1="68" y1="11.5" x2="88" y2="11.5" stroke="#D9D9D9" stroke-dasharray="2 2"/>
<line x1="112" y1="11.5" x2="132" y2="11.5" stroke="#D9D9D9" stroke-dasharray="2 2"/>
<line x1="156" y1="11.5" x2="176" y2="11.5" stroke="#D9D9D9" stroke-dasharray="2 2"/>
<rect width="24" height="24" rx="12" fill="#6588FF"/>
<path d="M13.1621 8.42969V15.5H11.8828V9.66992H11.8438L10.1934 10.7246V9.5625L11.9414 8.42969H13.1621Z" fill="white"/>
<rect x="44" width="24" height="24" rx="12" fill="#6588FF"/>
<path d="M53.5732 15.5V14.582L56.0732 12.1699C56.7861 11.457 57.1572 11.0371 57.1572 10.4414C57.1572 9.78223 56.6348 9.36719 55.9463 9.36719C55.2188 9.36719 54.75 9.82129 54.7549 10.5391H53.5439C53.5391 9.20117 54.5449 8.33203 55.9561 8.33203C57.4014 8.33203 58.373 9.19629 58.3779 10.3828C58.373 11.1787 57.9922 11.8232 56.6006 13.1367L55.3408 14.3867V14.4355H58.4854V15.5H53.5732Z" fill="white"/>
<rect x="88" width="24" height="24" rx="12" fill="#6588FF"/>
<path d="M99.9951 15.5977C98.4863 15.5977 97.4072 14.7773 97.3779 13.5859H98.6572C98.6914 14.1523 99.2578 14.5283 99.9951 14.5234C100.771 14.5283 101.333 14.0986 101.333 13.4688C101.333 12.834 100.786 12.3799 99.8682 12.375H99.2334V11.3984H99.8682C100.62 11.3984 101.143 10.9785 101.138 10.3633C101.143 9.76758 100.693 9.36719 100.005 9.36719C99.3408 9.36719 98.7695 9.73828 98.7451 10.334H97.5244C97.5537 9.14746 98.6328 8.33203 100.015 8.33203C101.45 8.33203 102.378 9.21094 102.368 10.2949C102.378 11.0859 101.851 11.6572 101.079 11.8184V11.877C102.075 12.0088 102.642 12.6484 102.632 13.5371C102.642 14.7334 101.523 15.5977 99.9951 15.5977Z" fill="white"/>
<rect x="132" width="24" height="24" rx="12" fill="#D9D9D9"/>
<path d="M141.231 14.1816V13.166L144.288 8.42969H145.87V13.1367H146.798V14.1816H145.87V15.5H144.659V14.1816H141.231ZM142.53 13.1367H144.679V9.875H144.601L142.53 13.0879V13.1367Z" fill="white"/>
<rect x="176" width="24" height="24" rx="12" fill="#D9D9D9"/>
<path d="M188.01 15.5977C186.599 15.5977 185.559 14.7529 185.52 13.5859H186.76C186.799 14.1572 187.341 14.5674 188.01 14.5723C188.801 14.5674 189.372 13.9961 189.367 13.2148C189.372 12.4043 188.786 11.833 187.971 11.8281C187.419 11.8232 187.019 12.0186 186.799 12.4336H185.617L186.047 8.42969H190.227V9.49414H187.092L186.877 11.3691H186.945C187.219 11.0615 187.731 10.8369 188.312 10.832C189.626 10.8369 190.603 11.8135 190.598 13.1758C190.603 14.5869 189.538 15.5977 188.01 15.5977Z" fill="white"/>
</svg>
