<svg width="224" height="48" viewBox="0 0 224 48" fill="none" xmlns="http://www.w3.org/2000/svg">
<line x1="36" y1="23.5" x2="56" y2="23.5" stroke="#D9D9D9" stroke-dasharray="2 2"/>
<line x1="80" y1="23.5" x2="100" y2="23.5" stroke="#D9D9D9" stroke-dasharray="2 2"/>
<line x1="124" y1="23.5" x2="144" y2="23.5" stroke="#D9D9D9" stroke-dasharray="2 2"/>
<line x1="168" y1="23.5" x2="188" y2="23.5" stroke="#D9D9D9" stroke-dasharray="2 2"/>
<g filter="url(#filter0_d_901_16329)">
<rect x="12" y="12" width="24" height="24" rx="12" fill="#6588FF" shape-rendering="crispEdges"/>
<path d="M25.1621 20.4297V27.5H23.8828V21.6699H23.8438L22.1934 22.7246V21.5625L23.9414 20.4297H25.1621Z" fill="white"/>
</g>
<g filter="url(#filter1_d_901_16329)">
<rect x="56" y="12" width="24" height="24" rx="12" fill="#6588FF" shape-rendering="crispEdges"/>
<path d="M65.5732 27.5V26.582L68.0732 24.1699C68.7861 23.457 69.1572 23.0371 69.1572 22.4414C69.1572 21.7822 68.6348 21.3672 67.9463 21.3672C67.2188 21.3672 66.75 21.8213 66.7549 22.5391H65.5439C65.5391 21.2012 66.5449 20.332 67.9561 20.332C69.4014 20.332 70.373 21.1963 70.3779 22.3828C70.373 23.1787 69.9922 23.8232 68.6006 25.1367L67.3408 26.3867V26.4355H70.4854V27.5H65.5732Z" fill="white"/>
</g>
<g filter="url(#filter2_d_901_16329)">
<rect x="100" y="12" width="24" height="24" rx="12" fill="#6588FF" shape-rendering="crispEdges"/>
<path d="M111.995 27.5977C110.486 27.5977 109.407 26.7773 109.378 25.5859H110.657C110.691 26.1523 111.258 26.5283 111.995 26.5234C112.771 26.5283 113.333 26.0986 113.333 25.4688C113.333 24.834 112.786 24.3799 111.868 24.375H111.233V23.3984H111.868C112.62 23.3984 113.143 22.9785 113.138 22.3633C113.143 21.7676 112.693 21.3672 112.005 21.3672C111.341 21.3672 110.77 21.7383 110.745 22.334H109.524C109.554 21.1475 110.633 20.332 112.015 20.332C113.45 20.332 114.378 21.2109 114.368 22.2949C114.378 23.0859 113.851 23.6572 113.079 23.8184V23.877C114.075 24.0088 114.642 24.6484 114.632 25.5371C114.642 26.7334 113.523 27.5977 111.995 27.5977Z" fill="white"/>
</g>
<g filter="url(#filter3_d_901_16329)">
<rect x="144" y="12" width="24" height="24" rx="12" fill="#6588FF" shape-rendering="crispEdges"/>
<path d="M153.231 26.1816V25.166L156.288 20.4297H157.87V25.1367H158.798V26.1816H157.87V27.5H156.659V26.1816H153.231ZM154.53 25.1367H156.679V21.875H156.601L154.53 25.0879V25.1367Z" fill="white"/>
</g>
<g filter="url(#filter4_d_901_16329)">
<rect x="188" y="12" width="24" height="24" rx="12" fill="#6588FF" shape-rendering="crispEdges"/>
<path d="M200.01 27.5977C198.599 27.5977 197.559 26.7529 197.52 25.5859H198.76C198.799 26.1572 199.341 26.5674 200.01 26.5723C200.801 26.5674 201.372 25.9961 201.367 25.2148C201.372 24.4043 200.786 23.833 199.971 23.8281C199.419 23.8232 199.019 24.0186 198.799 24.4336H197.617L198.047 20.4297H202.227V21.4941H199.092L198.877 23.3691H198.945C199.219 23.0615 199.731 22.8369 200.312 22.832C201.626 22.8369 202.603 23.8135 202.598 25.1758C202.603 26.5869 201.538 27.5977 200.01 27.5977Z" fill="white"/>
</g>
<defs>
<filter id="filter0_d_901_16329" x="0" y="0" width="48" height="48" filterUnits="userSpaceOnUse" color-interpolation-filters="sRGB">
<feFlood flood-opacity="0" result="BackgroundImageFix"/>
<feColorMatrix in="SourceAlpha" type="matrix" values="0 0 0 0 0 0 0 0 0 0 0 0 0 0 0 0 0 0 127 0" result="hardAlpha"/>
<feOffset/>
<feGaussianBlur stdDeviation="6"/>
<feComposite in2="hardAlpha" operator="out"/>
<feColorMatrix type="matrix" values="0 0 0 0 0.396078 0 0 0 0 0.533333 0 0 0 0 1 0 0 0 0.3 0"/>
<feBlend mode="normal" in2="BackgroundImageFix" result="effect1_dropShadow_901_16329"/>
<feBlend mode="normal" in="SourceGraphic" in2="effect1_dropShadow_901_16329" result="shape"/>
</filter>
<filter id="filter1_d_901_16329" x="44" y="0" width="48" height="48" filterUnits="userSpaceOnUse" color-interpolation-filters="sRGB">
<feFlood flood-opacity="0" result="BackgroundImageFix"/>
<feColorMatrix in="SourceAlpha" type="matrix" values="0 0 0 0 0 0 0 0 0 0 0 0 0 0 0 0 0 0 127 0" result="hardAlpha"/>
<feOffset/>
<feGaussianBlur stdDeviation="6"/>
<feComposite in2="hardAlpha" operator="out"/>
<feColorMatrix type="matrix" values="0 0 0 0 0.396078 0 0 0 0 0.533333 0 0 0 0 1 0 0 0 0.3 0"/>
<feBlend mode="normal" in2="BackgroundImageFix" result="effect1_dropShadow_901_16329"/>
<feBlend mode="normal" in="SourceGraphic" in2="effect1_dropShadow_901_16329" result="shape"/>
</filter>
<filter id="filter2_d_901_16329" x="88" y="0" width="48" height="48" filterUnits="userSpaceOnUse" color-interpolation-filters="sRGB">
<feFlood flood-opacity="0" result="BackgroundImageFix"/>
<feColorMatrix in="SourceAlpha" type="matrix" values="0 0 0 0 0 0 0 0 0 0 0 0 0 0 0 0 0 0 127 0" result="hardAlpha"/>
<feOffset/>
<feGaussianBlur stdDeviation="6"/>
<feComposite in2="hardAlpha" operator="out"/>
<feColorMatrix type="matrix" values="0 0 0 0 0.396078 0 0 0 0 0.533333 0 0 0 0 1 0 0 0 0.3 0"/>
<feBlend mode="normal" in2="BackgroundImageFix" result="effect1_dropShadow_901_16329"/>
<feBlend mode="normal" in="SourceGraphic" in2="effect1_dropShadow_901_16329" result="shape"/>
</filter>
<filter id="filter3_d_901_16329" x="132" y="0" width="48" height="48" filterUnits="userSpaceOnUse" color-interpolation-filters="sRGB">
<feFlood flood-opacity="0" result="BackgroundImageFix"/>
<feColorMatrix in="SourceAlpha" type="matrix" values="0 0 0 0 0 0 0 0 0 0 0 0 0 0 0 0 0 0 127 0" result="hardAlpha"/>
<feOffset/>
<feGaussianBlur stdDeviation="6"/>
<feComposite in2="hardAlpha" operator="out"/>
<feColorMatrix type="matrix" values="0 0 0 0 0.396078 0 0 0 0 0.533333 0 0 0 0 1 0 0 0 0.3 0"/>
<feBlend mode="normal" in2="BackgroundImageFix" result="effect1_dropShadow_901_16329"/>
<feBlend mode="normal" in="SourceGraphic" in2="effect1_dropShadow_901_16329" result="shape"/>
</filter>
<filter id="filter4_d_901_16329" x="176" y="0" width="48" height="48" filterUnits="userSpaceOnUse" color-interpolation-filters="sRGB">
<feFlood flood-opacity="0" result="BackgroundImageFix"/>
<feColorMatrix in="SourceAlpha" type="matrix" values="0 0 0 0 0 0 0 0 0 0 0 0 0 0 0 0 0 0 127 0" result="hardAlpha"/>
<feOffset/>
<feGaussianBlur stdDeviation="6"/>
<feComposite in2="hardAlpha" operator="out"/>
<feColorMatrix type="matrix" values="0 0 0 0 0.396078 0 0 0 0 0.533333 0 0 0 0 1 0 0 0 0.3 0"/>
<feBlend mode="normal" in2="BackgroundImageFix" result="effect1_dropShadow_901_16329"/>
<feBlend mode="normal" in="SourceGraphic" in2="effect1_dropShadow_901_16329" result="shape"/>
</filter>
</defs>
</svg>
