<svg width="16" height="16" viewBox="0 0 16 16" fill="none" xmlns="http://www.w3.org/2000/svg">
<path d="M5.33301 8.00004H10.6663M5.99967 5.33337H3.99967C3.29243 5.33337 2.61415 5.61433 2.11406 6.11442C1.61396 6.61452 1.33301 7.2928 1.33301 8.00004C1.33301 8.70728 1.61396 9.38556 2.11406 9.88566C2.61415 10.3858 3.29243 10.6667 3.99967 10.6667H5.99967M9.99967 5.33337H11.9997C12.7069 5.33337 13.3852 5.61433 13.8853 6.11442C14.3854 6.61452 14.6663 7.2928 14.6663 8.00004C14.6663 8.70728 14.3854 9.38556 13.8853 9.88566C13.3852 10.3858 12.7069 10.6667 11.9997 10.6667H9.99967" stroke="#6588FF" stroke-linecap="round" stroke-linejoin="round"/>
</svg>
