<svg width="265" height="106" viewBox="0 0 265 106" fill="none" xmlns="http://www.w3.org/2000/svg">
<path d="M41.2344 25.9219V26.9531H38.9844V34.2656H37.7656V20.375H38.9844V25.9219H41.2344ZM28.8125 30.7344V21.75H30.0312V29.7031C32.0625 29.7031 34.1328 29.5469 36.4219 29.0625L36.5781 30.1094C34.1797 30.5938 32.0234 30.7344 29.9219 30.7344H28.8125ZM49.0781 21.6406V28.0312H42.6562V21.6406H49.0781ZM43.8594 27.0469H47.8906V22.6406H43.8594V27.0469ZM44.2344 33.9688V29.5938H45.4375V32.9375H53.5625V33.9688H44.2344ZM51.7031 30.5625V20.375H52.9219V24.6094H55.0156V25.6406H52.9219V30.5625H51.7031ZM60.4375 21.3906C62.6172 21.3984 64.1641 22.7266 64.1719 24.6562C64.1641 26.5938 62.6172 27.9141 60.4375 27.9219C58.2422 27.9141 56.6797 26.5938 56.6875 24.6562C56.6797 22.7266 58.2422 21.3984 60.4375 21.3906ZM55.9688 30.1875C58.5312 30.1953 62.0703 30.1719 65.1406 29.7188L65.2344 30.625C62.0547 31.2188 58.6406 31.2344 56.1406 31.2344L55.9688 30.1875ZM57.8906 24.6562C57.8828 25.9531 58.9531 26.8438 60.4375 26.8438C61.9062 26.8438 62.9766 25.9531 62.9688 24.6562C62.9766 23.3672 61.9062 22.4688 60.4375 22.4688C58.9531 22.4688 57.8828 23.3672 57.8906 24.6562ZM66.0625 34.2969V20.375H67.2812V34.2969H66.0625ZM78.4375 24.6406C78.4219 26.8672 80.0312 29.3203 82.0469 30.2812L81.3438 31.25C79.7812 30.4844 78.4609 28.8438 77.8359 26.9609C77.1953 29 75.8047 30.7969 74.25 31.5938L73.5 30.625C75.5 29.6484 77.2188 27.0078 77.2344 24.6406V22.8281H74V21.8125H81.5625V22.8281H78.4375V24.6406ZM83.2656 34.2656V20.375H84.4844V26H86.8125V27.0469H84.4844V34.2656H83.2656ZM94.8906 21.3281C94.8906 21.8672 94.8281 22.3828 94.7188 22.875H97.8438V20.3906H99.0781V28.6719H97.8438V26.8281H94.1562V25.8125H97.8438V23.8906H94.3828C93.4453 26.0781 91.2656 27.6641 88.2656 28.4844L87.7812 27.5C91.1719 26.5625 93.3203 24.7031 93.5703 22.3281H88.4844V21.3281H94.8906ZM89.7344 30.2656V29.2812H99.0781V34.25H97.8438V30.2656H89.7344ZM114.047 26.9844V28H101.391V26.9844H114.047ZM102.109 25.1719C104.531 24.8906 106.867 23.6953 106.922 22.1094H102.547V21.0938H112.922V22.1094H108.516C108.57 23.6797 110.883 24.8906 113.344 25.1719L112.891 26.1562C110.617 25.8672 108.484 24.8438 107.719 23.3047C106.953 24.8438 104.836 25.8672 102.547 26.1562L102.109 25.1719ZM102.922 31.7344C102.914 30.1406 104.719 29.2188 107.719 29.2188C110.695 29.2188 112.484 30.1406 112.5 31.7344C112.484 33.3438 110.695 34.2344 107.719 34.2344C104.719 34.2344 102.914 33.3438 102.922 31.7344ZM104.172 31.7344C104.156 32.7031 105.492 33.2578 107.719 33.25C109.922 33.2578 111.258 32.7031 111.266 31.7344C111.258 30.7578 109.922 30.2031 107.719 30.1875C105.492 30.2031 104.156 30.7578 104.172 31.7344ZM124.469 23C124.477 24.4062 125.852 25.5938 127.828 26.0312L127.328 27.0156C125.727 26.6172 124.492 25.7734 123.883 24.6484C123.289 25.8672 122.039 26.7969 120.391 27.2031L119.859 26.2188C121.867 25.7734 123.25 24.4844 123.25 23V22.9375H120.156V21.9688H123.25V20.4219H124.469V21.9688H127.562V22.9375H124.469V23ZM119.203 28.1875C121.867 28.1797 125.391 28.1641 128.469 27.7656L128.547 28.6562C127.219 28.875 125.844 29.0078 124.5 29.0938V33.8594H123.281V29.1562C121.875 29.2109 120.539 29.2188 119.375 29.2188L119.203 28.1875ZM129.484 34.2812V20.3906H130.688V34.2812H129.484ZM145.734 27.1406V28.1562H133.062V27.1406H145.734ZM134.469 30.8281V29.8281H144.172V34.3438H142.953V30.8281H134.469ZM134.672 25.5938V20.9219H144.156V21.9219H135.891V24.5938H144.281V25.5938H134.672ZM157.234 20.5469C160.32 20.5469 162.133 21.4062 162.141 22.9531C162.133 24.4141 160.547 25.2578 157.812 25.3594V26.4219H163.562V27.4219H150.906V26.4219H156.609V25.3594C153.891 25.2422 152.312 24.4062 152.312 22.9531C152.312 21.4062 154.133 20.5469 157.234 20.5469ZM152.438 29.5469V28.5938H161.938V31.7031H153.688V33.1406H162.359V34.1094H152.469V30.7969H160.734V29.5469H152.438ZM153.594 22.9531C153.578 23.9062 154.93 24.4219 157.234 24.4375C159.539 24.4219 160.883 23.9062 160.891 22.9531C160.883 22.0391 159.539 21.5 157.234 21.4844C154.93 21.5 153.578 22.0391 153.594 22.9531ZM176.203 20.3906V30.5469H174.984V20.3906H176.203ZM165.062 24.7656C165.055 22.7656 166.625 21.3672 168.703 21.3594C170.781 21.3672 172.336 22.7656 172.344 24.7656C172.336 26.7891 170.781 28.1953 168.703 28.1875C166.625 28.1953 165.055 26.7891 165.062 24.7656ZM166.266 24.7656C166.25 26.1484 167.297 27.1094 168.703 27.1094C170.086 27.1094 171.141 26.1484 171.141 24.7656C171.141 23.4062 170.086 22.4375 168.703 22.4375C167.297 22.4375 166.25 23.4062 166.266 24.7656ZM167.234 33.9688V29.5156H168.453V32.9375H176.641V33.9688H167.234ZM190.016 20.3906V30.9375H188.781V29.5H185.906V28.6094H188.781V20.3906H190.016ZM178.484 26.8281C181.07 26.8125 184.555 26.7891 187.531 26.4219L187.609 27.3125C186.375 27.5078 185.07 27.6328 183.797 27.7109V30.4531H182.562V27.7734C181.156 27.8281 179.82 27.8281 178.656 27.8281L178.484 26.8281ZM179.609 23.375C179.602 21.9141 180.992 20.9531 183.047 20.9531C185.086 20.9531 186.477 21.9141 186.484 23.375C186.477 24.8594 185.086 25.7812 183.047 25.7812C180.992 25.7812 179.602 24.8594 179.609 23.375ZM180.484 33.9688V29.9062H181.719V32.9375H190.359V33.9688H180.484ZM180.781 23.375C180.766 24.2812 181.688 24.8672 183.047 24.875C184.367 24.8672 185.305 24.2812 185.312 23.375C185.305 22.4844 184.367 21.875 183.047 21.8906C181.688 21.875 180.766 22.4844 180.781 23.375ZM201.297 24.1094C201.289 26.625 202.906 29.1562 204.922 30.0781L204.188 31.0781C202.609 30.2656 201.305 28.6094 200.688 26.6328C200.07 28.7109 198.766 30.4922 197.188 31.3281L196.391 30.3438C198.43 29.3438 200.039 26.6719 200.047 24.1094V21.5781H201.297V24.1094ZM203.406 26.125V25.125H206.703V20.375H207.922V34.2969H206.703V26.125H203.406ZM221.688 20.375V34.2969H220.453V20.375H221.688ZM211.047 30.9375V21.5625H212.266V25.2344H216.406V21.5625H217.609V30.9375H211.047ZM212.266 29.9062H216.406V26.2188H212.266V29.9062ZM230.984 22.4219C230.992 24.8047 233.711 26.9219 236.125 27.375L235.562 28.4062C233.461 27.9219 231.258 26.4297 230.359 24.3906C229.453 26.4297 227.258 27.9141 225.156 28.4062L224.594 27.375C227 26.9141 229.695 24.8125 229.703 22.4219V21.3594H230.984V22.4219ZM224.062 32.375V31.3594H236.781V32.375H224.062Z" fill="white"/>
<path d="M89.0878 106C75.9748 106 67.5 96.8953 67.5 85.3284C67.5 73.8187 75.9748 64.714 89.0878 64.714C95.3246 64.714 99.6274 66.7425 101.868 68.2732C102.231 68.5219 102.331 69.0072 102.119 69.3936L98.7762 75.4833C98.5239 75.9431 97.9351 76.0852 97.4807 75.8234C96.0789 75.0158 93.3393 73.7614 89.4887 73.7614C82.2164 73.7614 77.4636 78.2279 77.4636 85.3284C77.4636 92.4861 82.2164 96.9526 89.4887 96.9526C93.3393 96.9526 96.0789 95.6982 97.4807 94.8907C97.9351 94.6289 98.5239 94.7709 98.7762 95.2307L102.119 101.32C102.331 101.707 102.231 102.192 101.869 102.443C99.6612 103.974 95.529 106 89.0878 106Z" fill="white"/>
<path d="M129.577 87.5351C129.739 87.9473 129.893 88.4013 130.012 88.7736C130.152 89.2114 129.922 89.6764 129.495 89.8451L114.555 95.7419C113.948 95.9814 113.807 96.7627 114.373 97.0867C116.045 98.0439 118.321 98.2568 120.802 97.2777C123.54 96.1968 124.773 94.5143 125.469 93.3491C125.747 92.8838 126.354 92.7689 126.774 93.1123L131.178 96.7196C131.493 96.9775 131.598 97.4162 131.4 97.7718C130.373 99.6158 127.942 102.586 122.618 104.687C114.789 107.777 106.722 104.497 103.905 97.36C101.088 90.2227 104.313 82.4857 111.877 79.5004C119.6 76.452 126.675 80.1848 129.577 87.5351ZM114.782 85.9256C112.778 86.7167 111.5 88.0392 111.24 89.9938C111.16 90.594 111.781 90.9884 112.345 90.7661L119.363 87.9958C119.885 87.7899 120.092 87.152 119.687 86.7641C118.45 85.5783 116.593 85.2109 114.782 85.9256Z" fill="white"/>
<path d="M152.156 76.8536C152.729 76.8536 153.277 76.8791 153.799 76.9471C154.24 77.0045 154.534 77.4112 154.497 77.8542L153.919 84.835C153.869 85.4438 153.241 85.8027 152.647 85.6603C152.222 85.5584 151.733 85.5002 151.068 85.5002C147.518 85.5002 144.941 87.4471 144.941 91.1118V102.815C144.941 103.309 144.541 103.71 144.046 103.71H136.789C136.294 103.71 135.894 103.309 135.894 102.815V78.2637C135.894 77.7695 136.294 77.3689 136.789 77.3689H142.669C143.046 77.3689 143.359 77.66 143.385 78.0357C143.443 78.8395 145.368 79.3157 146.001 78.8176C147.555 77.5961 149.713 76.8536 152.156 76.8536Z" fill="white"/>
<path d="M172.673 104.991C165.744 104.991 161.736 101.155 161.736 94.2259V86.6458C161.736 86.1517 161.335 85.7511 160.841 85.7511H157.305C156.811 85.7511 156.41 85.3505 156.41 84.8564V79.0299C156.41 78.5358 156.811 78.1352 157.305 78.1352H161.127C161.621 78.1352 162.022 77.7346 162.022 77.2405V69.9825C162.022 69.4884 162.422 69.0878 162.917 69.0878H169.888C170.382 69.0878 170.783 69.4884 170.783 69.9825V77.2405C170.783 77.7346 171.184 78.1352 171.678 78.1352H179.107C179.602 78.1352 180.002 78.5358 180.002 79.0299V84.8564C180.002 85.3505 179.602 85.7511 179.107 85.7511H171.678C171.184 85.7511 170.783 86.1517 170.783 86.6458V93.1379C170.783 95.8865 172.673 96.8027 174.849 96.8027C176.167 96.8027 177.196 96.4352 177.937 96.0734C178.411 95.8417 178.991 96.0149 179.212 96.4942L181.578 101.621C181.76 102.014 181.637 102.484 181.273 102.719C179.875 103.62 177.208 104.991 172.673 104.991Z" fill="white"/>
<path d="M191.042 74.5738C187.835 74.5738 185.373 72.3406 185.373 69.0767C185.373 65.87 187.835 63.694 191.042 63.6368C194.248 63.5795 196.825 65.87 196.825 69.0767C196.825 72.3406 194.248 74.5738 191.042 74.5738ZM187.527 105.037C187.033 105.037 186.633 104.637 186.633 104.143V79.5914C186.633 79.0973 187.033 78.6967 187.527 78.6967H194.785C195.279 78.6967 195.68 79.0973 195.68 79.5914V104.143C195.68 104.637 195.279 105.037 194.785 105.037H187.527Z" fill="white"/>
<path d="M189.74 62.8981C190.292 61.7006 191.994 61.7006 192.546 62.8981C192.883 63.6304 193.727 63.9799 194.483 63.7007C195.72 63.2441 196.923 64.4475 196.467 65.6845C196.188 66.4408 196.537 67.2846 197.269 67.622C198.467 68.1738 198.467 69.8757 197.269 70.4275C196.537 70.7649 196.188 71.6087 196.467 72.3651C196.923 73.602 195.72 74.8054 194.483 74.3489C193.727 74.0697 192.883 74.4192 192.546 75.1514C191.994 76.3489 190.292 76.3489 189.74 75.1514C189.403 74.4192 188.559 74.0697 187.802 74.3489C186.566 74.8054 185.362 73.602 185.819 72.3651C186.098 71.6087 185.748 70.7649 185.016 70.4275C183.819 69.8757 183.819 68.1738 185.016 67.622C185.748 67.2846 186.098 66.4408 185.819 65.6845C185.362 64.4475 186.566 63.2441 187.802 63.7007C188.559 63.9799 189.403 63.6304 189.74 62.8981Z" fill="white"/>
<path d="M41.2344 25.9219V26.9531H38.9844V34.2656H37.7656V20.375H38.9844V25.9219H41.2344ZM28.8125 30.7344V21.75H30.0312V29.7031C32.0625 29.7031 34.1328 29.5469 36.4219 29.0625L36.5781 30.1094C34.1797 30.5938 32.0234 30.7344 29.9219 30.7344H28.8125ZM49.0781 21.6406V28.0312H42.6562V21.6406H49.0781ZM43.8594 27.0469H47.8906V22.6406H43.8594V27.0469ZM44.2344 33.9688V29.5938H45.4375V32.9375H53.5625V33.9688H44.2344ZM51.7031 30.5625V20.375H52.9219V24.6094H55.0156V25.6406H52.9219V30.5625H51.7031ZM60.4375 21.3906C62.6172 21.3984 64.1641 22.7266 64.1719 24.6562C64.1641 26.5938 62.6172 27.9141 60.4375 27.9219C58.2422 27.9141 56.6797 26.5938 56.6875 24.6562C56.6797 22.7266 58.2422 21.3984 60.4375 21.3906ZM55.9688 30.1875C58.5312 30.1953 62.0703 30.1719 65.1406 29.7188L65.2344 30.625C62.0547 31.2188 58.6406 31.2344 56.1406 31.2344L55.9688 30.1875ZM57.8906 24.6562C57.8828 25.9531 58.9531 26.8438 60.4375 26.8438C61.9062 26.8438 62.9766 25.9531 62.9688 24.6562C62.9766 23.3672 61.9062 22.4688 60.4375 22.4688C58.9531 22.4688 57.8828 23.3672 57.8906 24.6562ZM66.0625 34.2969V20.375H67.2812V34.2969H66.0625ZM78.4375 24.6406C78.4219 26.8672 80.0312 29.3203 82.0469 30.2812L81.3438 31.25C79.7812 30.4844 78.4609 28.8438 77.8359 26.9609C77.1953 29 75.8047 30.7969 74.25 31.5938L73.5 30.625C75.5 29.6484 77.2188 27.0078 77.2344 24.6406V22.8281H74V21.8125H81.5625V22.8281H78.4375V24.6406ZM83.2656 34.2656V20.375H84.4844V26H86.8125V27.0469H84.4844V34.2656H83.2656ZM94.8906 21.3281C94.8906 21.8672 94.8281 22.3828 94.7188 22.875H97.8438V20.3906H99.0781V28.6719H97.8438V26.8281H94.1562V25.8125H97.8438V23.8906H94.3828C93.4453 26.0781 91.2656 27.6641 88.2656 28.4844L87.7812 27.5C91.1719 26.5625 93.3203 24.7031 93.5703 22.3281H88.4844V21.3281H94.8906ZM89.7344 30.2656V29.2812H99.0781V34.25H97.8438V30.2656H89.7344ZM114.047 26.9844V28H101.391V26.9844H114.047ZM102.109 25.1719C104.531 24.8906 106.867 23.6953 106.922 22.1094H102.547V21.0938H112.922V22.1094H108.516C108.57 23.6797 110.883 24.8906 113.344 25.1719L112.891 26.1562C110.617 25.8672 108.484 24.8438 107.719 23.3047C106.953 24.8438 104.836 25.8672 102.547 26.1562L102.109 25.1719ZM102.922 31.7344C102.914 30.1406 104.719 29.2188 107.719 29.2188C110.695 29.2188 112.484 30.1406 112.5 31.7344C112.484 33.3438 110.695 34.2344 107.719 34.2344C104.719 34.2344 102.914 33.3438 102.922 31.7344ZM104.172 31.7344C104.156 32.7031 105.492 33.2578 107.719 33.25C109.922 33.2578 111.258 32.7031 111.266 31.7344C111.258 30.7578 109.922 30.2031 107.719 30.1875C105.492 30.2031 104.156 30.7578 104.172 31.7344ZM124.469 23C124.477 24.4062 125.852 25.5938 127.828 26.0312L127.328 27.0156C125.727 26.6172 124.492 25.7734 123.883 24.6484C123.289 25.8672 122.039 26.7969 120.391 27.2031L119.859 26.2188C121.867 25.7734 123.25 24.4844 123.25 23V22.9375H120.156V21.9688H123.25V20.4219H124.469V21.9688H127.562V22.9375H124.469V23ZM119.203 28.1875C121.867 28.1797 125.391 28.1641 128.469 27.7656L128.547 28.6562C127.219 28.875 125.844 29.0078 124.5 29.0938V33.8594H123.281V29.1562C121.875 29.2109 120.539 29.2188 119.375 29.2188L119.203 28.1875ZM129.484 34.2812V20.3906H130.688V34.2812H129.484ZM145.734 27.1406V28.1562H133.062V27.1406H145.734ZM134.469 30.8281V29.8281H144.172V34.3438H142.953V30.8281H134.469ZM134.672 25.5938V20.9219H144.156V21.9219H135.891V24.5938H144.281V25.5938H134.672ZM157.234 20.5469C160.32 20.5469 162.133 21.4062 162.141 22.9531C162.133 24.4141 160.547 25.2578 157.812 25.3594V26.4219H163.562V27.4219H150.906V26.4219H156.609V25.3594C153.891 25.2422 152.312 24.4062 152.312 22.9531C152.312 21.4062 154.133 20.5469 157.234 20.5469ZM152.438 29.5469V28.5938H161.938V31.7031H153.688V33.1406H162.359V34.1094H152.469V30.7969H160.734V29.5469H152.438ZM153.594 22.9531C153.578 23.9062 154.93 24.4219 157.234 24.4375C159.539 24.4219 160.883 23.9062 160.891 22.9531C160.883 22.0391 159.539 21.5 157.234 21.4844C154.93 21.5 153.578 22.0391 153.594 22.9531ZM176.203 20.3906V30.5469H174.984V20.3906H176.203ZM165.062 24.7656C165.055 22.7656 166.625 21.3672 168.703 21.3594C170.781 21.3672 172.336 22.7656 172.344 24.7656C172.336 26.7891 170.781 28.1953 168.703 28.1875C166.625 28.1953 165.055 26.7891 165.062 24.7656ZM166.266 24.7656C166.25 26.1484 167.297 27.1094 168.703 27.1094C170.086 27.1094 171.141 26.1484 171.141 24.7656C171.141 23.4062 170.086 22.4375 168.703 22.4375C167.297 22.4375 166.25 23.4062 166.266 24.7656ZM167.234 33.9688V29.5156H168.453V32.9375H176.641V33.9688H167.234ZM190.016 20.3906V30.9375H188.781V29.5H185.906V28.6094H188.781V20.3906H190.016ZM178.484 26.8281C181.07 26.8125 184.555 26.7891 187.531 26.4219L187.609 27.3125C186.375 27.5078 185.07 27.6328 183.797 27.7109V30.4531H182.562V27.7734C181.156 27.8281 179.82 27.8281 178.656 27.8281L178.484 26.8281ZM179.609 23.375C179.602 21.9141 180.992 20.9531 183.047 20.9531C185.086 20.9531 186.477 21.9141 186.484 23.375C186.477 24.8594 185.086 25.7812 183.047 25.7812C180.992 25.7812 179.602 24.8594 179.609 23.375ZM180.484 33.9688V29.9062H181.719V32.9375H190.359V33.9688H180.484ZM180.781 23.375C180.766 24.2812 181.688 24.8672 183.047 24.875C184.367 24.8672 185.305 24.2812 185.312 23.375C185.305 22.4844 184.367 21.875 183.047 21.8906C181.688 21.875 180.766 22.4844 180.781 23.375ZM201.297 24.1094C201.289 26.625 202.906 29.1562 204.922 30.0781L204.188 31.0781C202.609 30.2656 201.305 28.6094 200.688 26.6328C200.07 28.7109 198.766 30.4922 197.188 31.3281L196.391 30.3438C198.43 29.3438 200.039 26.6719 200.047 24.1094V21.5781H201.297V24.1094ZM203.406 26.125V25.125H206.703V20.375H207.922V34.2969H206.703V26.125H203.406ZM221.688 20.375V34.2969H220.453V20.375H221.688ZM211.047 30.9375V21.5625H212.266V25.2344H216.406V21.5625H217.609V30.9375H211.047ZM212.266 29.9062H216.406V26.2188H212.266V29.9062ZM230.984 22.4219C230.992 24.8047 233.711 26.9219 236.125 27.375L235.562 28.4062C233.461 27.9219 231.258 26.4297 230.359 24.3906C229.453 26.4297 227.258 27.9141 225.156 28.4062L224.594 27.375C227 26.9141 229.695 24.8125 229.703 22.4219V21.3594H230.984V22.4219ZM224.062 32.375V31.3594H236.781V32.375H224.062Z" fill="white"/>
<path d="M168 8.07161C169.349 9.38091 169.968 10.2405 171 12.0716" stroke="white" stroke-width="2" stroke-linecap="round"/>
<path d="M171.001 12.0717C173.956 7.6113 175.806 5.72333 179.501 3.57165" stroke="white" stroke-width="2" stroke-linecap="round"/>
</svg>
