<svg width="131" height="44" viewBox="0 0 131 44" fill="none" xmlns="http://www.w3.org/2000/svg">
<path d="M21.6349 44C8.49327 44 0 34.8953 0 23.3284C0 11.8187 8.49327 2.71402 21.6349 2.71402C27.8853 2.71402 32.1974 4.74248 34.4424 6.27321C34.8072 6.52189 34.9067 7.0072 34.6942 7.3936L31.3444 13.4833C31.0915 13.9431 30.5015 14.0852 30.046 13.8234C28.6412 13.0158 25.8956 11.7614 22.0366 11.7614C14.7484 11.7614 9.98533 16.2279 9.98533 23.3284C9.98533 30.4861 14.7484 34.9526 22.0366 34.9526C25.8956 34.9526 28.6412 33.6982 30.046 32.8907C30.5015 32.6289 31.0915 32.7709 31.3444 33.2307L34.6942 39.3204C34.9067 39.7068 34.8072 40.1922 34.4441 40.4433C32.2313 41.9738 28.0901 44 21.6349 44Z" fill="#6588FF"/>
<path d="M62.2118 25.5351C62.3749 25.9473 62.5289 26.4013 62.6483 26.7736C62.7887 27.2114 62.5583 27.6764 62.1298 27.8451L47.1577 33.7419C46.5497 33.9814 46.4076 34.7627 46.975 35.0867C48.6508 36.0439 50.9321 36.2568 53.4181 35.2777C56.1625 34.1968 57.3974 32.5143 58.0951 31.3491C58.3737 30.8838 58.9826 30.7689 59.4028 31.1123L63.8166 34.7196C64.1322 34.9775 64.2375 35.4162 64.0391 35.7718C63.0104 37.6158 60.5736 40.5856 55.2384 42.6869C47.3917 45.7773 39.3077 42.4972 36.4844 35.36C33.6612 28.2227 36.8936 20.4857 44.4734 17.5004C52.2134 14.452 59.3043 18.1848 62.2118 25.5351ZM47.3852 23.9256C45.3765 24.7167 44.0956 26.0392 43.8351 27.9938C43.7551 28.594 44.3778 28.9884 44.9423 28.7661L51.9763 25.9958C52.4991 25.7899 52.7067 25.152 52.3009 24.7641C51.0606 23.5783 49.1998 23.2109 47.3852 23.9256Z" fill="#6588FF"/>
<path d="M84.8408 14.8536C85.4152 14.8536 85.9641 14.8791 86.4875 14.9471C86.9292 15.0045 87.2238 15.4112 87.187 15.8542L86.6077 22.835C86.5572 23.4438 85.928 23.8027 85.3327 23.6603C84.9068 23.5584 84.4162 23.5002 83.7504 23.5002C80.1924 23.5002 77.61 25.4471 77.61 29.1118V40.8148C77.61 41.3089 77.2086 41.7095 76.7133 41.7095H69.4396C68.9443 41.7095 68.5429 41.3089 68.5429 40.8148V16.2637C68.5429 15.7695 68.9443 15.3689 69.4396 15.3689H75.3333C75.7108 15.3689 76.024 15.66 76.0509 16.0357C76.1085 16.8395 78.0375 17.3157 78.6724 16.8176C80.2297 15.5961 82.3921 14.8536 84.8408 14.8536Z" fill="#6588FF"/>
<path d="M105.402 42.9911C98.4581 42.9911 94.441 39.1546 94.441 32.2259V24.6458C94.441 24.1517 94.0395 23.7511 93.5443 23.7511H90.0007C89.5055 23.7511 89.104 23.3505 89.104 22.8564V17.0299C89.104 16.5358 89.5055 16.1352 90.0007 16.1352H93.8313C94.3265 16.1352 94.7279 15.7346 94.7279 15.2405V7.98252C94.7279 7.48838 95.1294 7.0878 95.6246 7.0878H102.611C103.107 7.0878 103.508 7.48838 103.508 7.98252V15.2405C103.508 15.7346 103.91 16.1352 104.405 16.1352H111.851C112.346 16.1352 112.747 16.5358 112.747 17.0299V22.8564C112.747 23.3505 112.346 23.7511 111.851 23.7511H104.405C103.91 23.7511 103.508 24.1517 103.508 24.6458V31.1379C103.508 33.8865 105.402 34.8027 107.583 34.8027C108.904 34.8027 109.935 34.4352 110.678 34.0734C111.153 33.8417 111.734 34.0149 111.956 34.4942L114.327 39.6208C114.509 40.0139 114.386 40.4839 114.021 40.7185C112.62 41.6204 109.947 42.9911 105.402 42.9911Z" fill="#6588FF"/>
<path d="M123.811 12.5738C120.597 12.5738 118.13 10.3406 118.13 7.07668C118.13 3.87 120.597 1.69404 123.811 1.63678C127.025 1.57952 129.607 3.87 129.607 7.07668C129.607 10.3406 127.025 12.5738 123.811 12.5738ZM120.289 43.0373C119.794 43.0373 119.392 42.6367 119.392 42.1426V17.5914C119.392 17.0973 119.794 16.6967 120.289 16.6967H127.563C128.058 16.6967 128.459 17.0973 128.459 17.5914V42.1426C128.459 42.6367 128.058 43.0373 127.563 43.0373H120.289Z" fill="#6588FF"/>
<path d="M122.507 0.898131C123.06 -0.299377 124.765 -0.299377 125.318 0.898131C125.656 1.63036 126.502 1.97989 127.26 1.7007C128.5 1.24411 129.706 2.44753 129.248 3.68447C128.968 4.4408 129.318 5.28464 130.052 5.62204C131.252 6.17383 131.252 7.87572 130.052 8.42751C129.318 8.76491 128.968 9.60875 129.248 10.3651C129.706 11.602 128.5 12.8054 127.26 12.3489C126.502 12.0697 125.656 12.4192 125.318 13.1514C124.765 14.3489 123.06 14.3489 122.507 13.1514C122.168 12.4192 121.323 12.0697 120.565 12.3489C119.325 12.8054 118.119 11.602 118.577 10.3651C118.856 9.60875 118.506 8.76491 117.772 8.42751C116.572 7.87572 116.572 6.17383 117.772 5.62204C118.506 5.28464 118.856 4.4408 118.577 3.68447C118.119 2.44753 119.325 1.24411 120.565 1.7007C121.323 1.97989 122.168 1.63036 122.507 0.898131Z" fill="#6588FF"/>
</svg>
