<svg width="24" height="24" viewBox="0 0 24 24" fill="none" xmlns="http://www.w3.org/2000/svg">
<path fill-rule="evenodd" clip-rule="evenodd" d="M16.5177 8.29252C16.698 8.48006 16.7992 8.73428 16.7992 8.99934C16.7992 9.2644 16.698 9.51862 16.5177 9.70616L10.7428 15.7075C10.5624 15.8948 10.3177 16 10.0627 16C9.80761 16 9.56298 15.8948 9.38251 15.7075L7.45754 13.707C7.28753 13.5174 7.19497 13.2667 7.19937 13.0075C7.20377 12.7484 7.30478 12.5012 7.48112 12.3179C7.65747 12.1346 7.89538 12.0297 8.14472 12.0251C8.39407 12.0205 8.6354 12.1167 8.81785 12.2934L10.0627 13.587L15.1574 8.29252C15.3379 8.10521 15.5825 8 15.8376 8C16.0926 8 16.3373 8.10521 16.5177 8.29252Z" fill="#595959"/>
</svg>
