<svg width="75" height="25" viewBox="0 0 75 25" fill="none" xmlns="http://www.w3.org/2000/svg">
<path d="M12.2658 25C4.81522 25 0 19.8269 0 13.2548C0 6.71517 4.81522 1.54206 12.2658 1.54206C15.8095 1.54206 18.2542 2.69459 19.527 3.56432C19.7338 3.70562 19.7902 3.98136 19.6697 4.20091L17.7706 7.66098C17.6272 7.92222 17.2927 8.00293 17.0345 7.85418C16.238 7.39535 14.6814 6.68263 12.4936 6.68263C8.36157 6.68263 5.66114 9.22038 5.66114 13.2548C5.66114 17.3217 8.36157 19.8594 12.4936 19.8594C14.6814 19.8594 16.238 19.1467 17.0345 18.6879C17.2927 18.5391 17.6272 18.6198 17.7706 18.8811L19.6697 22.3411C19.7902 22.5607 19.7338 22.8365 19.5279 22.9792C18.2734 23.8487 15.9256 25 12.2658 25Z" fill="#434343"/>
<path d="M35.2707 14.5086C35.3632 14.7428 35.4505 15.0007 35.5182 15.2123C35.5978 15.461 35.4672 15.7252 35.2243 15.8211L26.7359 19.1715C26.3911 19.3076 26.3106 19.7515 26.6323 19.9356C27.5824 20.4795 28.8758 20.6005 30.2852 20.0442C31.8411 19.43 32.5412 18.474 32.9368 17.812C33.0947 17.5476 33.44 17.4823 33.6782 17.6774L36.1806 19.727C36.3595 19.8736 36.4192 20.1228 36.3067 20.3249C35.7235 21.3726 34.342 23.06 31.3172 24.2539C26.8685 26.0098 22.2853 24.1462 20.6847 20.0909C19.0841 16.0356 20.9167 11.6396 25.214 9.94339C29.6022 8.21135 33.6223 10.3322 35.2707 14.5086ZM26.8649 13.5941C25.726 14.0436 24.9998 14.795 24.8522 15.9056C24.8068 16.2466 25.1598 16.4707 25.4799 16.3444L29.4677 14.7703C29.7641 14.6533 29.8819 14.2909 29.6518 14.0705C28.9486 13.3968 27.8936 13.188 26.8649 13.5941Z" fill="#434343"/>
<path d="M48.1001 8.43953C48.4258 8.43953 48.737 8.45402 49.0337 8.49267C49.2841 8.52529 49.4512 8.75637 49.4303 9.00806L49.1019 12.9744C49.0732 13.3203 48.7166 13.5243 48.379 13.4434C48.1376 13.3855 47.8595 13.3524 47.482 13.3524C45.4648 13.3524 44.0007 14.4586 44.0007 16.5408V23.1902C44.0007 23.471 43.7731 23.6986 43.4923 23.6986H39.3685C39.0877 23.6986 38.8601 23.471 38.8601 23.1902V9.24072C38.8601 8.95995 39.0877 8.73235 39.3685 8.73235H42.7099C42.9239 8.73235 43.1015 8.89772 43.1168 9.11117C43.1494 9.56791 44.243 9.83847 44.603 9.55547C45.4859 8.86141 46.7119 8.43953 48.1001 8.43953Z" fill="#434343"/>
<path d="M59.7572 24.4268C55.8204 24.4268 53.5429 22.2469 53.5429 18.3102V14.0033C53.5429 13.7225 53.3153 13.4949 53.0346 13.4949H51.0255C50.7448 13.4949 50.5172 13.2673 50.5172 12.9866V9.6761C50.5172 9.39534 50.7448 9.16774 51.0255 9.16774H53.1973C53.478 9.16774 53.7056 8.94014 53.7056 8.65937V4.53552C53.7056 4.25476 53.9332 4.02716 54.214 4.02716H58.1752C58.4559 4.02716 58.6835 4.25476 58.6835 4.53552V8.65937C58.6835 8.94014 58.9111 9.16774 59.1919 9.16774H63.4133C63.6941 9.16774 63.9217 9.39534 63.9217 9.6761V12.9866C63.9217 13.2673 63.6941 13.4949 63.4133 13.4949H59.1919C58.9111 13.4949 58.6835 13.7225 58.6835 14.0033V17.692C58.6835 19.2537 59.7572 19.7742 60.9935 19.7742C61.7425 19.7742 62.3274 19.5654 62.7482 19.3599C63.0178 19.2283 63.3472 19.3266 63.4729 19.599L64.8173 22.5118C64.9204 22.7351 64.8507 23.0022 64.644 23.1355C63.8493 23.6479 62.3343 24.4268 59.7572 24.4268Z" fill="#434343"/>
<path d="M70.1942 7.14423C68.3722 7.14423 66.9732 5.87535 66.9732 4.02084C66.9732 2.19887 68.3722 0.962523 70.1942 0.929988C72.0161 0.897453 73.4802 2.19887 73.4802 4.02084C73.4802 5.87535 72.0161 7.14423 70.1942 7.14423ZM68.1973 24.453C67.9165 24.453 67.6889 24.2254 67.6889 23.9446V9.99513C67.6889 9.71437 67.9165 9.48677 68.1973 9.48677H72.3212C72.6019 9.48677 72.8295 9.71437 72.8295 9.99513V23.9446C72.8295 24.2254 72.6019 24.453 72.3212 24.453H68.1973Z" fill="#434343"/>
<path d="M69.4546 0.510302C69.7681 -0.170101 70.7351 -0.1701 71.0486 0.510302C71.2403 0.926338 71.7197 1.12494 72.1495 0.966307C72.8523 0.706881 73.5361 1.39064 73.2766 2.09345C73.118 2.52318 73.3166 3.00264 73.7326 3.19434C74.413 3.50786 74.413 4.47484 73.7326 4.78836C73.3166 4.98006 73.118 5.45952 73.2766 5.88925C73.5361 6.59206 72.8523 7.27582 72.1495 7.01639C71.7197 6.85776 71.2403 7.05636 71.0486 7.4724C70.7351 8.1528 69.7681 8.1528 69.4546 7.4724C69.2629 7.05636 68.7834 6.85776 68.3537 7.01639C67.6509 7.27582 66.9671 6.59206 67.2265 5.88925C67.3852 5.45952 67.1866 4.98006 66.7705 4.78836C66.0901 4.47484 66.0901 3.50786 66.7705 3.19434C67.1866 3.00264 67.3852 2.52318 67.2265 2.09345C66.9671 1.39064 67.6509 0.706881 68.3537 0.966307C68.7834 1.12494 69.2629 0.926338 69.4546 0.510302Z" fill="#434343"/>
</svg>
