<svg width="24" height="24" viewBox="0 0 24 24" fill="none" xmlns="http://www.w3.org/2000/svg">
<path d="M11.1704 2.23281C11.5667 1.64389 12.4333 1.64389 12.8296 2.23281L14.45 4.64061C14.6745 4.97418 15.0769 5.14087 15.4715 5.06373L18.3198 4.50692C19.0165 4.37073 19.6293 4.98352 19.4931 5.6802L18.9363 8.52853C18.8591 8.92312 19.0258 9.32554 19.3594 9.55002L21.7672 11.1704C22.3561 11.5667 22.3561 12.4333 21.7672 12.8296L19.3594 14.45C19.0258 14.6745 18.8591 15.0769 18.9363 15.4715L19.4931 18.3198C19.6293 19.0165 19.0165 19.6293 18.3198 19.4931L15.4715 18.9363C15.0769 18.8591 14.6745 19.0258 14.45 19.3594L12.8296 21.7672C12.4333 22.3561 11.5667 22.3561 11.1704 21.7672L9.55002 19.3594C9.32554 19.0258 8.92312 18.8591 8.52853 18.9363L5.6802 19.4931C4.98353 19.6293 4.37073 19.0165 4.50692 18.3198L5.06373 15.4715C5.14087 15.0769 4.97418 14.6745 4.64061 14.45L2.23281 12.8296C1.64389 12.4333 1.64389 11.5667 2.23281 11.1704L4.64061 9.55002C4.97418 9.32554 5.14087 8.92312 5.06373 8.52853L4.50692 5.6802C4.37073 4.98353 4.98352 4.37073 5.6802 4.50692L8.52853 5.06373C8.92312 5.14087 9.32554 4.97418 9.55002 4.64061L11.1704 2.23281Z" fill="#434343"/>
</svg>
