<svg width="36" height="36" viewBox="0 0 36 36" fill="none" xmlns="http://www.w3.org/2000/svg">
<path d="M18 5C10.8319 5 5 10.8319 5 18C5 25.1681 10.8319 31 18 31C25.1681 31 31 25.1681 31 18C31 10.8319 25.1681 5 18 5ZM22.7069 21.2931C22.8036 21.3851 22.881 21.4954 22.9345 21.6177C22.9879 21.7401 23.0163 21.8718 23.018 22.0053C23.0197 22.1388 22.9947 22.2712 22.9444 22.3949C22.8941 22.5185 22.8196 22.6308 22.7252 22.7252C22.6308 22.8196 22.5185 22.8941 22.3949 22.9444C22.2712 22.9947 22.1388 23.0197 22.0053 23.018C21.8718 23.0163 21.7401 22.9879 21.6177 22.9345C21.4954 22.881 21.3851 22.8036 21.2931 22.7069L18 19.4144L14.7069 22.7069C14.5178 22.8865 14.2661 22.9852 14.0053 22.9818C13.7445 22.9785 13.4954 22.8734 13.311 22.689C13.1266 22.5046 13.0215 22.2555 13.0182 21.9947C13.0148 21.7339 13.1135 21.4822 13.2931 21.2931L16.5856 18L13.2931 14.7069C13.1135 14.5178 13.0148 14.2661 13.0182 14.0053C13.0215 13.7445 13.1266 13.4954 13.311 13.311C13.4954 13.1266 13.7445 13.0215 14.0053 13.0182C14.2661 13.0148 14.5178 13.1135 14.7069 13.2931L18 16.5856L21.2931 13.2931C21.4822 13.1135 21.7339 13.0148 21.9947 13.0182C22.2555 13.0215 22.5046 13.1266 22.689 13.311C22.8734 13.4954 22.9785 13.7445 22.9818 14.0053C22.9852 14.2661 22.8865 14.5178 22.7069 14.7069L19.4144 18L22.7069 21.2931Z" fill="#595959"/>
</svg>
