<svg width="24" height="24" viewBox="0 0 24 24" fill="none" xmlns="http://www.w3.org/2000/svg">
<path d="M1.61787 7.87524C1.71229 5.86165 3.33032 4.25718 5.344 4.16465C10.1482 3.94389 13.8305 3.94504 18.6532 4.16861C20.63 4.26026 22.2357 5.81006 22.3569 7.78524C22.5559 11.029 22.545 13.7303 22.3388 17.1941C22.22 19.1913 20.601 20.7658 18.6021 20.8507C13.9045 21.0503 10.2312 21.0502 5.35942 20.8478C3.33904 20.7638 1.7083 19.1606 1.61361 17.1407C1.45945 13.8524 1.46344 11.1683 1.61787 7.87524Z" fill="#434343"/>
<path d="M8 12.5C7.45 12.5 6.97917 12.3042 6.5875 11.9125C6.19583 11.5208 6 11.05 6 10.5C6 9.95 6.19583 9.47917 6.5875 9.0875C6.97917 8.69583 7.45 8.5 8 8.5C8.55 8.5 9.02083 8.69583 9.4125 9.0875C9.80417 9.47917 10 9.95 10 10.5C10 11.05 9.80417 11.5208 9.4125 11.9125C9.02083 12.3042 8.55 12.5 8 12.5ZM5 16.5C4.725 16.5 4.48967 16.4022 4.294 16.2065C4.098 16.0105 4 15.775 4 15.5V15.1C4 14.8167 4.073 14.5562 4.219 14.3185C4.36467 14.0812 4.55833 13.9 4.8 13.775C5.31667 13.5167 5.84167 13.3228 6.375 13.1935C6.90833 13.0645 7.45 13 8 13C8.55 13 9.09167 13.0645 9.625 13.1935C10.1583 13.3228 10.6833 13.5167 11.2 13.775C11.4417 13.9 11.6353 14.0812 11.781 14.3185C11.927 14.5562 12 14.8167 12 15.1V15.5C12 15.775 11.9022 16.0105 11.7065 16.2065C11.5105 16.4022 11.275 16.5 11 16.5H5Z" fill="white"/>
<path d="M13 9.5H19" stroke="white" stroke-width="1.5" stroke-linecap="round"/>
<path d="M15 12.5L19 12.5" stroke="white" stroke-width="1.5" stroke-linecap="round"/>
<path d="M17 15.5H19" stroke="white" stroke-width="1.5" stroke-linecap="round"/>
</svg>
