<svg width="24" height="24" viewBox="0 0 24 24" fill="none" xmlns="http://www.w3.org/2000/svg">
<path d="M12 4C7.58885 4 4 7.58885 4 12C4 16.4112 7.58885 20 12 20C16.4112 20 20 16.4112 20 12C20 7.58885 16.4112 4 12 4ZM14.8965 14.0265C14.9561 14.0831 15.0037 14.151 15.0366 14.2263C15.0695 14.3016 15.087 14.3827 15.088 14.4648C15.0891 14.5469 15.0737 14.6284 15.0427 14.7045C15.0118 14.7806 14.9659 14.8497 14.9078 14.9078C14.8497 14.9659 14.7806 15.0118 14.7045 15.0427C14.6284 15.0737 14.5469 15.0891 14.4648 15.088C14.3827 15.087 14.3016 15.0695 14.2263 15.0366C14.151 15.0037 14.0831 14.9561 14.0265 14.8965L12 12.8704L9.97346 14.8965C9.85712 15.0071 9.70219 15.0678 9.54172 15.0657C9.38126 15.0637 9.22794 14.999 9.11446 14.8855C9.00098 14.7721 8.93632 14.6187 8.93427 14.4583C8.93221 14.2978 8.99293 14.1429 9.10346 14.0265L11.1296 12L9.10346 9.97346C8.99293 9.85712 8.93221 9.70219 8.93427 9.54172C8.93632 9.38126 9.00098 9.22794 9.11446 9.11446C9.22794 9.00098 9.38126 8.93632 9.54172 8.93427C9.70219 8.93221 9.85712 8.99293 9.97346 9.10346L12 11.1296L14.0265 9.10346C14.1429 8.99293 14.2978 8.93221 14.4583 8.93427C14.6187 8.93632 14.7721 9.00098 14.8855 9.11446C14.999 9.22794 15.0637 9.38126 15.0657 9.54172C15.0678 9.70219 15.0071 9.85712 14.8965 9.97346L12.8704 12L14.8965 14.0265Z" fill="#595959"/>
</svg>
