<svg width="255" height="298" viewBox="0 0 255 298" fill="none" xmlns="http://www.w3.org/2000/svg">
<path d="M64.7232 66.1299C64.5633 60.6609 68.7908 56.0571 74.1656 55.847L139.856 53.2794C145.23 53.0693 149.717 57.3445 149.877 62.8135C150.918 98.4331 151.609 122.069 152.65 157.688C152.81 163.157 148.583 167.773 143.208 167.983L77.5183 170.551C72.1436 170.761 67.6569 166.498 67.497 161.029L64.7232 66.1299Z" fill="#456FFE"/>
<path d="M76.5405 51.6723C76.5164 51.2171 76.8595 50.825 77.307 50.7965L91.6246 49.8845C92.072 49.856 92.4543 50.2025 92.4784 50.6577C92.8733 58.1083 93.1169 62.703 93.5033 69.9949C93.5373 70.6356 92.8713 71.076 92.3138 70.7808L86.156 67.5198C85.9017 67.3852 85.5952 67.3983 85.3504 67.5543L78.8055 71.7256C78.2815 72.0596 77.6022 71.704 77.569 71.0784L76.5405 51.6723Z" fill="#91C3FF"/>
<ellipse cx="132" cy="288.5" rx="86" ry="9.5" fill="#F8F8F8"/>
<g filter="url(#filter0_d_923_15310)">
<path d="M113.001 64.6503C114.99 59.6693 120.666 57.2446 125.679 59.2346L186.952 83.5559C191.965 85.5459 194.413 91.2079 192.424 96.1889C179.474 128.63 170.88 150.157 157.929 182.598C155.941 187.579 150.261 190.014 145.247 188.024L83.9748 163.703C78.9614 161.713 76.5093 156.062 78.4977 151.081L113.001 64.6503Z" fill="white"/>
<path d="M123.595 121.53C124.009 120.493 125.191 119.988 126.236 120.402L163.302 135.115C164.346 135.53 164.857 136.707 164.443 137.745C164.029 138.782 162.846 139.287 161.802 138.873L124.736 124.16C123.691 123.745 123.18 122.568 123.595 121.53Z" fill="#B6D7FF"/>
<path d="M119.394 132.052C119.808 131.015 120.991 130.51 122.035 130.924L159.101 145.637C160.146 146.052 160.657 147.229 160.242 148.267C159.828 149.304 158.646 149.809 157.601 149.395L120.535 134.682C119.491 134.267 118.98 133.09 119.394 132.052Z" fill="#B6D7FF"/>
<path d="M115.194 142.574C115.608 141.537 116.79 141.032 117.835 141.446L154.901 156.159C155.945 156.574 156.456 157.751 156.042 158.789C155.628 159.826 154.445 160.331 153.401 159.917L116.335 145.204C115.29 144.789 114.779 143.612 115.194 142.574Z" fill="#B6D7FF"/>
<path d="M110.993 153.096C111.408 152.059 112.59 151.554 113.634 151.968L131.789 159.174C132.834 159.589 133.345 160.766 132.93 161.804C132.516 162.842 131.334 163.347 130.289 162.932L112.134 155.726C111.09 155.311 110.579 154.134 110.993 153.096Z" fill="#B6D7FF"/>
<path d="M117.574 94.7402C117.74 94.3251 118.213 94.1231 118.63 94.2889L129.056 98.4275C129.474 98.5934 129.678 99.0647 129.512 99.4798C128.128 102.948 127.221 105.217 125.871 108.6C125.657 109.137 124.962 109.283 124.546 108.878L120.908 105.34C120.76 105.196 120.561 105.113 120.352 105.109L114.661 105.01C114.091 105 113.707 104.427 113.917 103.901L117.574 94.7402Z" fill="#6588FF"/>
<path d="M131.976 74.5846C132.343 74.4694 132.741 74.6259 132.931 74.9596L135.367 79.2463C135.445 79.3832 135.561 79.4948 135.701 79.5673L140.094 81.8378C140.436 82.0146 140.607 82.4052 140.504 82.7739L139.183 87.5105C139.141 87.6618 139.144 87.8222 139.192 87.9721L140.692 92.6629C140.809 93.028 140.652 93.4239 140.317 93.6117L136.013 96.0236C135.875 96.1007 135.764 96.216 135.691 96.3554L133.419 100.719C133.242 101.058 132.85 101.228 132.479 101.124L127.713 99.7987C127.561 99.7564 127.399 99.759 127.249 99.8063L122.536 101.286C122.169 101.401 121.771 101.245 121.581 100.911L119.145 96.6245C119.067 96.4875 118.951 96.3759 118.811 96.3034L114.418 94.0329C114.076 93.8562 113.905 93.4656 114.007 93.0968L115.328 88.3602C115.371 88.2089 115.368 88.0485 115.32 87.8986L113.82 83.2079C113.703 82.8427 113.86 82.4468 114.195 82.259L118.499 79.8471C118.636 79.77 118.748 79.6548 118.821 79.5154L121.093 75.1521C121.27 74.8125 121.662 74.6432 122.033 74.7463L126.799 76.072C126.951 76.1143 127.113 76.1117 127.263 76.0644L131.976 74.5846Z" fill="#91C3FF"/>
<path d="M132.696 89.3335C132.082 92.1723 129.268 93.9723 126.412 93.3539C123.556 92.7355 121.739 89.9329 122.354 87.0941C122.969 84.2553 125.782 82.4553 128.638 83.0737C131.494 83.6921 133.311 86.4947 132.696 89.3335Z" fill="#6588FF"/>
</g>
<g opacity="0.9" filter="url(#filter1_i_923_15310)">
<rect x="33.1768" y="128.675" width="172.087" height="108.793" rx="12" transform="rotate(-7.93647 33.1768 128.675)" fill="#C5D2FF" fill-opacity="0.5"/>
<path d="M42.8907 127.321C41.9878 120.844 46.5063 114.862 52.983 113.959L86.1738 109.332C90.0752 108.788 93.9951 110.193 96.662 113.092L102.151 119.059L42.8907 127.321Z" fill="#C5D2FF" fill-opacity="0.5"/>
</g>
<path d="M203.722 52.8771C204.743 51.1388 207.257 51.1388 208.278 52.8771C208.821 53.8013 209.869 54.3059 210.93 54.1542C212.926 53.869 214.493 55.8342 213.771 57.7166C213.387 58.7175 213.646 59.8512 214.426 60.5864C215.894 61.9691 215.334 64.4196 213.412 65.0286C212.39 65.3525 211.665 66.2616 211.577 67.33C211.411 69.3394 209.146 70.43 207.472 69.307C206.581 68.7099 205.419 68.7099 204.528 69.307C202.854 70.43 200.589 69.3394 200.423 67.33C200.335 66.2616 199.61 65.3525 198.588 65.0286C196.666 64.4196 196.106 61.9691 197.574 60.5864C198.354 59.8512 198.613 58.7175 198.229 57.7166C197.507 55.8342 199.074 53.869 201.07 54.1542C202.131 54.3059 203.179 53.8013 203.722 52.8771Z" fill="#F7F8FE"/>
<path d="M60.5826 5.81562C62.1148 3.20817 65.8852 3.20817 67.4174 5.81562C68.232 7.20201 69.8036 7.95882 71.3954 7.73136C74.3893 7.30355 76.7401 10.2513 75.6568 13.075C75.0808 14.5763 75.469 16.2768 76.6393 17.3796C78.8405 19.4536 78.0015 23.1294 75.1185 24.043C73.5856 24.5287 72.498 25.8924 72.3656 27.495C72.1164 30.509 68.7194 32.1449 66.2077 30.4605C64.8721 29.5649 63.1279 29.5649 61.7923 30.4605C59.2806 32.1449 55.8836 30.509 55.6344 27.495C55.502 25.8924 54.4145 24.5287 52.8815 24.043C49.9985 23.1294 49.1595 19.4536 51.3607 17.3796C52.531 16.2768 52.9192 14.5763 52.3432 13.075C51.2599 10.2513 53.6107 7.30355 56.6046 7.73136C58.1964 7.95882 59.768 7.20201 60.5826 5.81562Z" fill="#F7F8FE"/>
<path d="M233.583 98.8156C235.115 96.2082 238.885 96.2082 240.417 98.8156C241.232 100.202 242.804 100.959 244.395 100.731C247.389 100.304 249.74 103.251 248.657 106.075C248.081 107.576 248.469 109.277 249.639 110.38C251.84 112.454 251.001 116.129 248.118 117.043C246.586 117.529 245.498 118.892 245.366 120.495C245.116 123.509 241.719 125.145 239.208 123.46C237.872 122.565 236.128 122.565 234.792 123.46C232.281 125.145 228.884 123.509 228.634 120.495C228.502 118.892 227.414 117.529 225.882 117.043C222.999 116.129 222.16 112.454 224.361 110.38C225.531 109.277 225.919 107.576 225.343 106.075C224.26 103.251 226.611 100.304 229.605 100.731C231.196 100.959 232.768 100.202 233.583 98.8156Z" fill="#E2E7FD"/>
<path d="M9.72175 84.8771C10.7432 83.1388 13.2568 83.1388 14.2782 84.8771C14.8214 85.8013 15.8691 86.3059 16.9303 86.1542C18.9262 85.869 20.4934 87.8342 19.7712 89.7166C19.3872 90.7175 19.646 91.8512 20.4262 92.5864C21.8936 93.9691 21.3343 96.4196 19.4123 97.0286C18.3904 97.3525 17.6653 98.2616 17.577 99.33C17.4109 101.339 15.1463 102.43 13.4718 101.307C12.5814 100.71 11.4186 100.71 10.5282 101.307C8.8537 102.43 6.58905 101.339 6.42297 99.33C6.33466 98.2616 5.60963 97.3525 4.5877 97.0286C2.66568 96.4196 2.10636 93.9691 3.57378 92.5864C4.35401 91.8512 4.61277 90.7175 4.22878 89.7166C3.50659 87.8342 5.07378 85.869 7.06971 86.1542C8.13095 86.3059 9.17864 85.8013 9.72175 84.8771Z" fill="#E2E7FD"/>
<defs>
<filter id="filter0_d_923_15310" x="61.8076" y="42.5389" width="155.308" height="170.18" filterUnits="userSpaceOnUse" color-interpolation-filters="sRGB">
<feFlood flood-opacity="0" result="BackgroundImageFix"/>
<feColorMatrix in="SourceAlpha" type="matrix" values="0 0 0 0 0 0 0 0 0 0 0 0 0 0 0 0 0 0 127 0" result="hardAlpha"/>
<feOffset dx="4" dy="4"/>
<feGaussianBlur stdDeviation="10"/>
<feComposite in2="hardAlpha" operator="out"/>
<feColorMatrix type="matrix" values="0 0 0 0 0.396078 0 0 0 0 0.533333 0 0 0 0 1 0 0 0 0.1 0"/>
<feBlend mode="normal" in2="BackgroundImageFix" result="effect1_dropShadow_923_15310"/>
<feBlend mode="normal" in="SourceGraphic" in2="effect1_dropShadow_923_15310" result="shape"/>
</filter>
<filter id="filter1_i_923_15310" x="30.7168" y="102.455" width="190.38" height="136.43" filterUnits="userSpaceOnUse" color-interpolation-filters="sRGB">
<feFlood flood-opacity="0" result="BackgroundImageFix"/>
<feBlend mode="normal" in="SourceGraphic" in2="BackgroundImageFix" result="shape"/>
<feColorMatrix in="SourceAlpha" type="matrix" values="0 0 0 0 0 0 0 0 0 0 0 0 0 0 0 0 0 0 127 0" result="hardAlpha"/>
<feOffset dx="-4" dy="-4"/>
<feGaussianBlur stdDeviation="6"/>
<feComposite in2="hardAlpha" operator="arithmetic" k2="-1" k3="1"/>
<feColorMatrix type="matrix" values="0 0 0 0 0.804969 0 0 0 0 0.852046 0 0 0 0 1 0 0 0 1 0"/>
<feBlend mode="normal" in2="shape" result="effect1_innerShadow_923_15310"/>
</filter>
</defs>
</svg>
