<svg width="120" height="183" viewBox="0 0 120 183" fill="none" xmlns="http://www.w3.org/2000/svg">
<path d="M48.6898 77.3215C54.4599 70.0151 65.5401 70.0151 71.3102 77.3215C74.4125 81.2497 79.3308 83.2869 84.302 82.7029C93.5486 81.6166 101.383 89.4514 100.297 98.698C99.7131 103.669 101.75 108.588 105.678 111.69C112.985 117.46 112.985 128.54 105.678 134.31C101.75 137.412 99.7131 142.331 100.297 147.302C101.383 156.549 93.5486 164.383 84.302 163.297C79.3308 162.713 74.4125 164.75 71.3102 168.678C65.5401 175.985 54.4599 175.985 48.6898 168.678C45.5875 164.75 40.6692 162.713 35.698 163.297C26.4514 164.383 18.6166 156.549 19.7029 147.302C20.2869 142.331 18.2497 137.412 14.3215 134.31C7.01508 128.54 7.01508 117.46 14.3215 111.69C18.2497 108.588 20.2869 103.669 19.7029 98.698C18.6166 89.4514 26.4514 81.6166 35.698 82.7029C40.6692 83.2869 45.5875 81.2497 48.6898 77.3215Z" fill="#6588FF"/>
<g filter="url(#filter0_i_1033_21365)">
<circle cx="60" cy="123" r="40" fill="#D2E6FF"/>
</g>
<circle cx="60" cy="123" r="38.5" stroke="#6588FF" stroke-width="3"/>
<g filter="url(#filter1_i_1033_21365)">
<circle cx="60.5" cy="123.5" r="32.5" fill="#91C3FF"/>
</g>
<circle cx="60.5" cy="123.5" r="32.25" stroke="#6588FF" stroke-width="0.5"/>
<path d="M57.2928 100.042C58.3795 97.7645 61.6212 97.7645 62.7079 100.042L67.5457 110.18C67.983 111.097 68.8543 111.73 69.8612 111.862L80.9982 113.331C83.4999 113.66 84.5016 116.743 82.6715 118.481L74.5244 126.214C73.7879 126.914 73.4551 127.938 73.64 128.936L75.6853 139.982C76.1447 142.463 73.5221 144.369 71.3044 143.165L61.4314 137.806C60.5389 137.322 59.4619 137.322 58.5693 137.806L48.6964 143.165C46.4786 144.369 43.856 142.463 44.3155 139.982L46.3608 128.936C46.5457 127.938 46.2129 126.914 45.4764 126.214L37.3292 118.481C35.4991 116.743 36.5009 113.66 39.0026 113.331L50.1396 111.862C51.1464 111.73 52.0177 111.097 52.4551 110.18L57.2928 100.042Z" fill="#6588FF"/>
<path d="M47.8626 39.9872C50.8507 45.0509 53.1944 46.8625 58.3944 46.7483C58.3944 46.7483 56.876 52.2753 53.5828 52.992C48.9234 54.006 43.4771 46.0298 43.4808 46.7483L47.8626 39.9872Z" fill="#FF6363"/>
<path d="M81.1985 56.9593C82.6871 57.2647 90.1532 51.4253 88.563 45.8666C88.563 45.8666 93.37 49.9772 95.7527 50.6399C98.1354 51.3026 90.3544 62.3646 88.3882 61.7326C86.4219 61.1006 81.1985 56.9593 81.1985 56.9593Z" fill="#FFDB39"/>
<path d="M85.3367 24.654C85.9803 23.8153 84.5948 17.3683 80.6329 16.6742C80.6329 16.6742 84.6662 14.9152 85.805 13.6254C86.9438 12.3357 91.5019 20.5668 90.5088 21.6052C89.5158 22.6436 85.3367 24.654 85.3367 24.654Z" fill="#FF6363"/>
<path d="M29.8643 54.9061L35.6398 61.1822C33.6886 63.9846 33.0259 65.9653 32.2809 70.0098C32.2809 70.0098 28.3577 66.4459 27.7497 63.3642C27.0907 60.0238 29.8643 54.9061 29.8643 54.9061Z" fill="#FFB765"/>
<path d="M14 7.83367L19.9177 8.61427C20.1266 10.9949 20.6591 12.3561 22.0732 14.8629C22.0732 14.8629 18.3672 14.7083 16.6582 13.3256C14.8058 11.8269 14 7.83367 14 7.83367Z" fill="#91C3FF"/>
<path d="M38.3438 15.6338L43.0469 19.3093C42.0189 21.4667 41.7871 22.9098 41.7335 25.7875C41.7335 25.7875 38.6185 23.7737 37.8475 21.7151C37.0118 19.4837 38.3438 15.6338 38.3438 15.6338Z" fill="#FFDB39"/>
<path d="M35.0439 39.197L41.1104 43.9378C39.7845 46.7206 39.4854 48.5821 39.4163 52.2939C39.4163 52.2939 35.3983 49.6963 34.4039 47.041C33.3259 44.1628 35.0439 39.197 35.0439 39.197Z" fill="#91C3FF"/>
<path d="M57.3008 64.1944L56.9121 58.2382C59.2062 57.5689 60.4374 56.7811 62.6202 54.9052C62.6202 54.9052 63.1915 58.5702 62.1687 60.516C61.0601 62.6252 57.3008 64.1944 57.3008 64.1944Z" fill="#6588FF"/>
<path d="M16.2704 52.3813L17.2591 47.4452L21.455 49.7683L21.0102 54.4521L16.2704 52.3813Z" fill="#FFB765"/>
<path d="M100.509 29.631L101.497 24.6948L105.693 27.0179L105.248 31.7017L100.509 29.631Z" fill="#6588FF"/>
<path d="M76.3427 38.0896L77.3314 33.1535L81.5273 35.4766L81.0824 40.1604L76.3427 38.0896Z" fill="#FFB765"/>
<path d="M60.6486 19.9237L64.6298 16.8426L66.2774 21.3468L62.8724 24.5936L60.6486 19.9237Z" fill="#6588FF"/>
<defs>
<filter id="filter0_i_1033_21365" x="20" y="83" width="84" height="84" filterUnits="userSpaceOnUse" color-interpolation-filters="sRGB">
<feFlood flood-opacity="0" result="BackgroundImageFix"/>
<feBlend mode="normal" in="SourceGraphic" in2="BackgroundImageFix" result="shape"/>
<feColorMatrix in="SourceAlpha" type="matrix" values="0 0 0 0 0 0 0 0 0 0 0 0 0 0 0 0 0 0 127 0" result="hardAlpha"/>
<feOffset dx="4" dy="4"/>
<feGaussianBlur stdDeviation="10"/>
<feComposite in2="hardAlpha" operator="arithmetic" k2="-1" k3="1"/>
<feColorMatrix type="matrix" values="0 0 0 0 0.568627 0 0 0 0 0.764706 0 0 0 0 1 0 0 0 1 0"/>
<feBlend mode="normal" in2="shape" result="effect1_innerShadow_1033_21365"/>
</filter>
<filter id="filter1_i_1033_21365" x="28" y="91" width="69" height="69" filterUnits="userSpaceOnUse" color-interpolation-filters="sRGB">
<feFlood flood-opacity="0" result="BackgroundImageFix"/>
<feBlend mode="normal" in="SourceGraphic" in2="BackgroundImageFix" result="shape"/>
<feColorMatrix in="SourceAlpha" type="matrix" values="0 0 0 0 0 0 0 0 0 0 0 0 0 0 0 0 0 0 127 0" result="hardAlpha"/>
<feOffset dx="4" dy="4"/>
<feGaussianBlur stdDeviation="10"/>
<feComposite in2="hardAlpha" operator="arithmetic" k2="-1" k3="1"/>
<feColorMatrix type="matrix" values="0 0 0 0 0.396078 0 0 0 0 0.533333 0 0 0 0 1 0 0 0 0.5 0"/>
<feBlend mode="normal" in2="shape" result="effect1_innerShadow_1033_21365"/>
</filter>
</defs>
</svg>
